<svg xmlns="http://www.w3.org/2000/svg" height="512pt" version="1.1" viewBox="0 0 512 512" width="512pt">

<path d="M 254.93 52.37 C 256.14 51.08 258.48 52.26 260.13 52.11 C 259.02 52.66 257.91 53.21 256.81 53.76 C 254.64 58.88 250.90 63.12 247.06 67.06 C 247.08 64.89 246.98 62.39 248.64 60.73 C 250.99 58.13 253.16 55.39 254.93 52.37 Z" fill="#fef7bb" opacity="1.00" stroke="#fef7bb" stroke-width="0.25" data-index="1" style="opacity: 1;"></path>

<path d="M 256.81 53.76 C 257.91 53.21 259.02 52.66 260.13 52.11 C 262.20 53.91 264.04 55.98 265.07 58.57 C 262.03 61.10 259.01 63.66 255.84 66.04 C 256.24 67.62 256.63 69.20 257.02 70.79 C 253.26 71.10 249.87 69.42 247.06 67.06 C 250.90 63.12 254.64 58.88 256.81 53.76 Z" fill="#fcc93a" opacity="1.00" stroke="#fcc93a" stroke-width="0.25" data-index="3" style="opacity: 1;"></path>
<path d="M 255.84 66.04 C 259.01 63.66 262.03 61.10 265.07 58.57 C 264.92 62.35 264.31 66.11 262.45 69.46 C 260.66 70.00 258.85 70.48 257.02 70.79 C 256.63 69.20 256.24 67.62 255.84 66.04 Z" fill="#692426" opacity="1.00" stroke="#692426" stroke-width="0.25" data-index="4" style="opacity: 1;"></path>
<path d="M 367.90 76.09 C 368.34 72.06 374.62 71.08 376.45 74.55 C 376.87 76.21 376.81 77.95 376.99 79.64 C 375.80 80.27 374.61 80.91 373.43 81.54 C 373.33 94.02 373.47 106.50 373.48 118.98 C 373.44 121.31 373.18 123.62 372.88 125.92 C 371.95 124.10 371.41 122.07 371.42 120.02 C 371.50 107.24 371.67 94.45 371.51 81.66 C 369.83 80.17 367.06 78.82 367.90 76.09 Z" fill="#99a5ab" opacity="1.00" stroke="#99a5ab" stroke-width="0.25" data-index="5" style="opacity: 1;"></path>
<path d="M 352.43 76.94 C 352.27 72.16 360.40 70.71 361.65 75.45 C 362.86 79.30 357.61 81.22 357.78 84.94 C 357.43 96.21 358.41 107.54 357.44 118.78 L 356.67 119.11 L 355.93 119.38 C 355.31 107.90 355.86 96.39 355.68 84.90 C 355.82 81.85 353.32 79.68 352.43 76.94 Z" fill="#9cb5af" opacity="1.00" stroke="#9cb5af" stroke-width="0.25" data-index="6" style="opacity: 1;"></path>
<path d="M 234.60 87.59 C 241.48 83.64 248.07 78.22 256.28 77.61 C 255.97 78.20 255.33 79.38 255.01 79.98 C 251.38 84.26 246.12 86.54 241.43 89.42 C 216.47 104.20 191.52 119.02 166.13 133.07 C 165.61 133.14 164.58 133.27 164.06 133.33 C 165.91 130.76 167.88 128.27 170.19 126.09 C 174.10 124.13 177.95 122.04 181.55 119.54 C 187.94 115.08 194.90 111.55 201.58 107.56 C 212.78 101.22 223.48 94.07 234.60 87.59 Z" fill="#76cfb3" opacity="1.00" stroke="#76cfb3" stroke-width="0.25" data-index="7" style="opacity: 1;"></path>
<path d="M 256.28 77.61 C 260.96 78.26 265.26 80.35 269.27 82.77 C 308.48 105.72 347.75 128.59 386.95 151.57 C 384.37 151.32 382.30 152.74 381.08 154.92 C 372.14 149.04 362.69 144.02 353.62 138.34 C 325.41 121.98 297.49 105.12 269.27 88.77 C 264.36 86.10 259.54 83.26 255.01 79.98 C 255.33 79.38 255.97 78.20 256.28 77.61 Z" fill="#ed793f" opacity="1.00" stroke="#ed793f" stroke-width="0.25" data-index="8" style="opacity: 1;"></path>

<path d="M 74.82 84.04 C 77.32 82.70 80.07 81.82 82.94 81.89 C 92.65 81.73 102.37 81.53 112.08 81.81 C 110.99 82.98 109.90 84.15 108.82 85.32 C 100.21 85.48 91.59 85.30 82.98 85.50 C 80.18 85.61 77.46 84.86 74.82 84.04 Z" fill="#afddc8" opacity="1.00" stroke="#afddc8" stroke-width="0.25" data-index="10"></path>
<path d="M 112.08 81.81 C 128.01 82.97 144.02 81.94 159.97 82.82 C 159.95 83.53 159.92 84.96 159.90 85.67 C 142.87 85.74 125.84 85.43 108.82 85.32 C 109.90 84.15 110.99 82.98 112.08 81.81 Z" fill="#8cb6a7" opacity="1.00" stroke="#8cb6a7" stroke-width="0.25" data-index="11"></path>
<path d="M 242.98 94.00 C 247.08 91.46 251.18 88.47 256.04 87.63 C 260.43 87.43 264.07 90.45 267.42 92.89 C 266.84 93.17 265.69 93.74 265.11 94.02 C 262.04 92.35 258.73 90.67 255.16 90.67 C 251.48 91.02 248.03 92.68 244.98 94.70 C 244.48 94.53 243.48 94.18 242.98 94.00 Z" fill="#a0b99c" opacity="1.00" stroke="#a0b99c" stroke-width="0.25" data-index="12" style="opacity: 1;"></path>
<path d="M 173.17 89.91 C 178.04 87.43 184.97 92.48 183.38 97.95 C 182.52 100.75 180.35 104.00 177.01 103.68 C 172.98 104.14 169.47 100.68 168.60 96.97 C 168.51 93.97 170.84 91.49 173.17 89.91 Z" fill="#6aaf9b" opacity="1.00" stroke="#6aaf9b" stroke-width="0.25" data-index="13" style="opacity: 1;"></path>

<path d="M 76.26 92.00 C 85.16 91.47 94.08 91.68 103.00 91.62 C 109.46 91.64 115.94 91.34 122.37 92.13 C 118.68 92.61 114.99 93.04 111.29 93.41 C 111.45 93.87 111.76 94.80 111.92 95.26 C 100.01 95.35 88.09 95.43 76.19 95.10 C 76.21 94.32 76.24 92.77 76.26 92.00 Z" fill="#8ec0b3" opacity="1.00" stroke="#8ec0b3" stroke-width="0.25" data-index="15"></path>
<path d="M 122.37 92.13 C 127.88 91.40 133.46 91.71 139.00 91.69 C 143.19 91.77 147.46 91.60 151.56 92.61 C 151.92 93.26 152.64 94.57 153.00 95.22 C 139.31 95.57 125.61 95.06 111.92 95.26 C 111.76 94.80 111.45 93.87 111.29 93.41 C 114.99 93.04 118.68 92.61 122.37 92.13 Z" fill="#7da397" opacity="1.00" stroke="#7da397" stroke-width="0.25" data-index="16" style="opacity: 1;"></path>
<path d="M 173.35 93.16 C 175.92 91.48 180.51 93.50 179.64 96.89 C 180.15 100.93 172.55 101.99 172.31 97.72 C 172.47 96.27 171.69 93.84 173.35 93.16 Z" fill="#cdf8e1" opacity="1.00" stroke="#cdf8e1" stroke-width="0.25" data-index="17"></path>
<path d="M 267.42 92.89 C 272.03 96.82 277.50 99.45 282.84 102.23 C 304.37 114.46 325.47 127.43 347.00 139.67 C 345.87 141.07 344.75 142.47 343.64 143.88 C 332.76 137.17 321.55 131.04 310.66 124.36 C 298.26 117.07 286.06 109.41 273.16 103.04 C 271.96 98.97 268.56 96.19 265.11 94.02 C 265.69 93.74 266.84 93.17 267.42 92.89 Z" fill="#e9723d" opacity="1.00" stroke="#e9723d" stroke-width="0.25" data-index="18" style="opacity: 1;"></path>
<path d="M 188.25 128.13 C 206.08 116.10 225.44 106.49 242.98 94.00 C 243.48 94.18 244.48 94.53 244.98 94.70 C 242.89 97.39 241.41 100.57 238.86 102.87 C 234.80 106.00 229.99 107.93 225.65 110.61 C 210.94 119.40 195.85 127.51 181.26 136.48 C 180.70 136.11 179.59 135.36 179.04 134.99 C 182.20 132.83 185.22 130.47 188.25 128.13 Z" fill="#77d4b6" opacity="1.00" stroke="#77d4b6" stroke-width="0.25" data-index="19" style="opacity: 1;"></path>
<path d="M 249.18 98.11 C 252.10 94.81 257.06 97.25 260.81 97.25 L 260.67 98.08 C 258.54 98.55 255.79 98.29 254.52 100.45 C 252.11 103.96 250.72 108.03 249.04 111.92 L 248.63 112.90 C 247.74 108.07 246.74 102.64 249.18 98.11 Z" fill="#fcf5d7" opacity="1.00" stroke="#fcf5d7" stroke-width="0.25" data-index="20" style="opacity: 1;"></path>
<path d="M 254.52 100.45 C 255.79 98.29 258.54 98.55 260.67 98.08 L 261.55 97.96 C 262.01 100.16 262.44 102.37 262.80 104.60 C 260.48 106.03 258.09 107.34 255.85 108.88 C 257.76 110.24 259.64 111.65 261.50 113.08 L 262.14 113.60 C 257.70 115.61 252.98 114.43 249.04 111.92 C 250.72 108.03 252.11 103.96 254.52 100.45 Z" fill="#fde348" opacity="1.00" stroke="#fde348" stroke-width="0.25" data-index="21" style="opacity: 1;"></path>
<path d="M 75.75 100.67 C 89.19 100.51 102.64 100.67 116.08 100.77 C 115.42 101.46 114.76 102.16 114.11 102.86 C 119.21 102.92 124.30 103.31 129.35 104.07 C 111.47 104.70 93.57 103.99 75.68 104.27 C 75.70 103.37 75.73 101.57 75.75 100.67 Z" fill="#97c1b7" opacity="1.00" stroke="#97c1b7" stroke-width="0.25" data-index="22" style="opacity: 1;"></path>
<path d="M 116.08 100.77 C 127.44 101.07 138.88 100.01 150.19 101.34 C 149.96 102.74 149.79 105.00 147.83 104.74 C 141.67 104.91 135.49 104.50 129.35 104.07 C 124.30 103.31 119.21 102.92 114.11 102.86 C 114.76 102.16 115.42 101.46 116.08 100.77 Z" fill="#869993" opacity="1.00" stroke="#869993" stroke-width="0.25" data-index="23" style="opacity: 1;"></path>

<path d="M 262.80 104.60 C 263.29 104.31 264.29 103.74 264.78 103.45 C 265.10 107.05 264.06 110.49 261.50 113.08 C 259.64 111.65 257.76 110.24 255.85 108.88 C 258.09 107.34 260.48 106.03 262.80 104.60 Z" fill="#4f3c43" opacity="1.00" stroke="#4f3c43" stroke-width="0.25" data-index="25" style="opacity: 1;"></path>
<path d="M 217.01 121.04 C 224.85 116.81 231.96 111.23 240.27 107.90 C 240.67 112.32 236.59 114.44 233.36 116.33 C 222.28 122.59 211.50 129.38 200.10 135.08 C 194.19 137.96 189.00 142.15 183.03 144.90 C 181.36 145.33 179.67 145.65 177.98 145.99 C 178.67 144.97 179.35 143.95 180.07 142.96 C 181.46 141.64 183.17 140.75 184.81 139.78 C 195.68 133.76 206.13 127.03 217.01 121.04 Z" fill="#80d7b5" opacity="1.00" stroke="#80d7b5" stroke-width="0.25" data-index="26" style="opacity: 1;"></path>
<path d="M 74.56 111.67 C 79.05 109.39 84.17 110.24 89.01 110.20 C 95.45 110.36 101.88 109.95 108.32 109.86 C 107.08 110.86 105.85 111.86 104.57 112.79 C 101.40 113.42 98.16 112.92 94.97 112.82 C 88.17 112.35 81.25 113.33 74.56 111.67 Z" fill="#a4d4cc" opacity="1.00" stroke="#a4d4cc" stroke-width="0.25" data-index="27"></path>
<path d="M 108.32 109.86 C 114.23 109.72 120.15 109.77 126.06 109.71 C 128.48 109.81 131.54 109.64 132.92 112.10 C 131.06 113.92 128.38 113.51 126.02 113.54 C 118.87 113.24 111.68 113.74 104.57 112.79 C 105.85 111.86 107.08 110.86 108.32 109.86 Z" fill="#8aada3" opacity="1.00" stroke="#8aada3" stroke-width="0.25" data-index="28" style="opacity: 1;"></path>
<path d="M 274.05 109.64 C 281.41 112.70 288.10 117.07 295.02 120.97 C 308.59 128.94 322.21 136.84 335.86 144.67 C 335.00 146.16 334.14 147.64 333.28 149.13 C 316.19 139.54 299.74 128.86 282.55 119.45 C 279.91 117.89 277.03 116.51 274.96 114.19 C 274.41 112.73 274.29 111.16 274.05 109.64 Z" fill="#ea9e4d" opacity="1.00" stroke="#ea9e4d" stroke-width="0.25" data-index="29" style="opacity: 1;"></path>
<path d="M 234.59 122.59 C 237.45 121.00 240.36 118.76 243.82 119.10 C 244.76 121.41 242.11 122.49 240.64 123.64 C 226.37 132.05 212.27 140.75 197.82 148.83 C 191.34 152.22 185.44 156.61 178.90 159.89 C 172.79 162.98 167.15 166.87 161.12 170.09 C 160.35 168.96 159.59 167.84 158.82 166.71 C 163.83 163.70 169.09 161.14 174.03 158.01 C 185.28 150.66 197.26 144.52 208.85 137.75 C 217.25 132.39 226.05 127.71 234.59 122.59 Z" fill="#abe9d0" opacity="1.00" stroke="#abe9d0" stroke-width="0.25" data-index="30" style="opacity: 1;"></path>
<path d="M 272.40 119.34 C 276.68 120.80 280.26 123.66 284.16 125.86 C 295.55 132.28 306.73 139.05 317.95 145.76 C 316.83 146.88 315.72 148.01 314.61 149.14 C 299.66 140.67 285.04 131.63 269.78 123.74 C 270.62 122.25 271.42 120.74 272.40 119.34 Z" fill="#e88d42" opacity="1.00" stroke="#e88d42" stroke-width="0.25" data-index="31" style="opacity: 1;"></path>
<path d="M 112.47 120.42 C 116.33 117.86 122.18 121.24 121.68 125.91 C 122.11 130.48 116.07 133.25 112.64 130.43 C 108.89 128.39 108.55 122.47 112.47 120.42 Z" fill="#aa5346" opacity="1.00" stroke="#aa5346" stroke-width="0.25" data-index="32" style="opacity: 1;"></path>
<path d="M 393.53 120.65 C 398.02 118.48 403.67 123.02 402.11 127.83 C 401.04 132.56 394.04 133.27 391.49 129.50 C 389.39 126.72 390.27 122.13 393.53 120.65 Z" fill="#b7573e" opacity="1.00" stroke="#b7573e" stroke-width="0.25" data-index="33"></path>
<path d="M 150.27 137.29 C 156.80 133.92 162.62 129.26 169.44 126.45 L 170.19 126.09 C 167.88 128.27 165.91 130.76 164.06 133.33 C 164.58 133.27 165.61 133.14 166.13 133.07 C 158.78 138.24 150.74 142.30 143.15 147.12 C 135.52 151.95 126.99 155.18 119.48 160.23 C 122.73 153.75 130.13 151.66 135.33 147.19 C 140.02 143.47 144.96 140.06 150.27 137.29 Z" fill="#a6e0ce" opacity="1.00" stroke="#a6e0ce" stroke-width="0.25" data-index="34"></path>
<path d="M 155.84 146.78 C 166.50 140.32 176.99 133.51 188.25 128.13 C 185.22 130.47 182.20 132.83 179.04 134.99 C 179.59 135.36 180.70 136.11 181.26 136.48 C 173.15 141.86 164.53 146.38 156.12 151.26 C 154.77 151.08 153.43 150.91 152.08 150.74 C 153.32 149.40 154.54 148.05 155.84 146.78 Z" fill="#a1e6cd" opacity="1.00" stroke="#a1e6cd" stroke-width="0.25" data-index="35"></path>
<path d="M 227.59 138.63 C 234.63 135.14 240.97 130.31 248.34 127.49 C 248.18 129.11 249.07 131.27 247.51 132.43 C 244.50 134.86 240.97 136.52 237.77 138.66 C 215.62 151.59 193.28 164.19 171.19 177.21 C 165.91 180.40 160.56 183.54 154.87 185.98 C 152.84 185.43 150.80 184.88 148.75 184.39 C 163.26 176.50 177.19 167.63 191.60 159.59 C 203.38 152.23 215.75 145.88 227.59 138.63 Z" fill="#42aa99" opacity="1.00" stroke="#42aa99" stroke-width="0.25" data-index="36" style="opacity: 1;"></path>
<path d="M 265.50 132.03 C 265.34 130.36 265.23 128.50 266.87 127.50 C 271.86 129.37 276.05 132.75 280.67 135.32 C 299.42 146.27 318.16 157.22 336.98 168.04 C 342.12 170.94 349.46 173.64 349.59 180.57 C 344.77 181.25 341.43 177.59 337.71 175.26 C 318.32 163.13 297.96 152.63 278.69 140.31 C 274.37 137.43 269.38 135.52 265.50 132.03 Z" fill="#cd603a" opacity="1.00" stroke="#cd603a" stroke-width="0.25" data-index="37" style="opacity: 1;"></path>

<path d="M 343.64 143.88 C 344.75 142.47 345.87 141.07 347.00 139.67 C 357.70 146.26 368.83 152.08 380.08 157.65 C 379.80 158.12 379.23 159.07 378.95 159.54 C 373.86 159.56 368.38 159.87 364.17 156.45 C 357.51 151.97 350.50 148.04 343.64 143.88 Z" fill="#dd693b" opacity="1.00" stroke="#dd693b" stroke-width="0.25" data-index="39"></path>
<path d="M 252.01 140.54 C 254.32 140.90 256.64 141.20 258.95 141.60 C 257.95 141.98 256.95 142.37 255.96 142.77 C 254.18 147.86 249.92 151.26 245.14 153.39 C 245.95 149.96 246.51 146.30 248.75 143.44 C 249.52 144.51 250.27 145.60 251.01 146.71 C 251.53 146.39 252.05 146.07 252.58 145.76 C 252.40 144.02 252.19 142.28 252.01 140.54 Z" fill="#f7f5d9" opacity="1.00" stroke="#f7f5d9" stroke-width="0.25" data-index="40" style="opacity: 1;"></path>
<path d="M 255.96 142.77 C 256.95 142.37 257.95 141.98 258.95 141.60 C 260.09 142.52 261.43 143.14 262.63 143.99 C 261.39 147.14 260.37 150.51 258.10 153.10 C 255.31 156.25 252.15 159.04 249.33 162.16 C 246.96 159.77 245.06 156.89 245.14 153.39 C 249.92 151.26 254.18 147.86 255.96 142.77 Z" fill="#f9b537" opacity="1.00" stroke="#f9b537" stroke-width="0.25" data-index="41" style="opacity: 1;"></path>
<path d="M 81.13 144.19 C 83.08 142.80 85.79 143.14 88.08 142.70 C 86.10 148.33 83.08 153.65 78.36 157.44 C 78.46 152.95 78.23 147.95 81.13 144.19 Z" fill="#def6df" opacity="1.00" stroke="#def6df" stroke-width="0.25" data-index="42"></path>
<path d="M 88.08 142.70 C 89.61 143.44 91.14 144.18 92.67 144.91 C 90.03 147.22 87.14 149.51 85.70 152.82 C 84.12 155.95 84.41 159.56 84.24 162.96 C 82.13 161.29 80.12 159.49 78.36 157.44 C 83.08 153.65 86.10 148.33 88.08 142.70 Z" fill="#abe0cb" opacity="1.00" stroke="#abe0cb" stroke-width="0.25" data-index="43" style="opacity: 1;"></path>
<path d="M 141.61 164.58 C 154.57 157.62 166.73 149.16 180.07 142.96 C 179.35 143.95 178.67 144.97 177.98 145.99 C 179.67 145.65 181.36 145.33 183.03 144.90 C 180.47 147.14 177.65 149.05 174.64 150.63 C 161.89 157.40 149.81 165.35 136.99 171.99 C 134.68 173.37 131.28 174.64 131.71 177.94 C 131.83 210.95 131.71 243.98 131.77 277.00 C 131.86 281.76 131.78 286.54 131.41 291.29 C 130.84 253.92 131.91 216.53 130.78 179.17 C 130.45 179.18 129.77 179.20 129.43 179.21 C 128.91 182.18 128.38 185.15 127.95 188.13 C 127.80 183.38 126.69 178.20 128.81 173.74 C 132.09 169.53 137.11 167.22 141.61 164.58 Z" fill="#b1ebd5" opacity="1.00" stroke="#b1ebd5" stroke-width="0.25" data-index="44" style="opacity: 1;"></path>
<path d="M 221.86 154.91 C 228.66 151.04 235.11 146.46 242.47 143.67 C 241.72 146.77 240.59 149.99 237.67 151.68 C 224.01 159.71 210.18 167.45 196.55 175.53 C 189.37 179.92 181.27 182.54 174.25 187.19 C 170.07 189.85 165.83 192.41 161.43 194.68 C 159.95 207.52 162.10 220.43 161.05 233.31 C 160.24 233.60 158.63 234.20 157.82 234.49 C 157.10 225.68 157.65 216.83 157.50 208.00 C 157.63 202.71 157.08 197.38 157.77 192.13 C 160.96 188.99 165.27 187.41 169.02 185.06 C 177.03 180.25 185.34 175.98 193.52 171.46 C 202.93 165.88 212.38 160.37 221.86 154.91 Z" fill="#34a18f" opacity="1.00" stroke="#34a18f" stroke-width="0.25" data-index="45" style="opacity: 1;"></path>
<path d="M 262.63 143.99 C 265.07 145.86 266.01 148.76 266.63 151.65 C 263.41 153.22 259.87 154.48 257.27 157.04 C 256.26 158.79 256.47 160.97 256.16 162.92 C 257.51 163.14 258.86 163.36 260.22 163.56 C 256.51 163.98 252.78 163.59 249.33 162.16 C 252.15 159.04 255.31 156.25 258.10 153.10 C 260.37 150.51 261.39 147.14 262.63 143.99 Z" fill="#e77c32" opacity="1.00" stroke="#e77c32" stroke-width="0.25" data-index="46" style="opacity: 1;"></path>
<path d="M 270.54 143.81 C 276.45 145.61 281.50 149.28 286.86 152.23 C 299.93 159.36 312.54 167.28 325.53 174.55 C 330.29 177.16 334.91 180.18 338.52 184.31 C 333.92 186.03 330.02 182.64 326.03 180.95 C 317.98 177.30 310.56 172.48 302.96 168.02 C 295.22 163.41 287.35 159.04 279.66 154.34 C 277.03 152.68 274.10 151.38 271.88 149.15 C 270.86 147.58 270.88 145.59 270.54 143.81 Z" fill="#c45535" opacity="1.00" stroke="#c45535" stroke-width="0.25" data-index="47" style="opacity: 1;"></path>
<path d="M 416.10 154.97 C 415.32 150.68 416.99 146.78 419.84 143.67 C 423.17 143.75 426.51 143.76 429.85 143.74 L 429.51 144.10 C 426.00 144.50 424.17 147.28 422.88 150.25 C 421.82 153.15 418.67 153.94 416.10 154.97 Z" fill="#fcf7d8" opacity="1.00" stroke="#fcf7d8" stroke-width="0.25" data-index="48"></path>
<path d="M 333.28 149.13 C 334.14 147.64 335.00 146.16 335.86 144.67 C 344.18 149.36 352.24 154.50 360.70 158.96 C 363.54 160.15 363.16 162.92 362.20 165.31 C 352.21 160.58 343.05 154.30 333.28 149.13 Z" fill="#e48d43" opacity="1.00" stroke="#e48d43" stroke-width="0.25" data-index="49" style="opacity: 1;"></path>
<path d="M 422.88 150.25 C 424.17 147.28 426.00 144.50 429.51 144.10 C 430.51 145.25 431.54 146.40 432.58 147.53 C 430.92 149.73 429.53 152.37 427.00 153.69 C 423.91 155.28 420.54 156.20 417.22 157.14 C 416.84 156.42 416.47 155.69 416.10 154.97 C 418.67 153.94 421.82 153.15 422.88 150.25 Z" fill="#fdc73d" opacity="1.00" stroke="#fdc73d" stroke-width="0.25" data-index="50" style="opacity: 1;"></path>
<path d="M 85.70 152.82 C 87.14 149.51 90.03 147.22 92.67 144.91 C 93.52 146.08 94.38 147.25 95.23 148.42 C 93.90 148.65 92.58 148.88 91.25 149.11 C 88.88 153.24 86.81 157.52 84.79 161.83 L 84.24 162.96 C 84.41 159.56 84.12 155.95 85.70 152.82 Z" fill="#7acea7" opacity="1.00" stroke="#7acea7" stroke-width="0.25" data-index="51" style="opacity: 1;"></path>
<path d="M 314.61 149.14 C 315.72 148.01 316.83 146.88 317.95 145.76 C 328.83 151.55 339.44 157.82 350.14 163.92 C 353.40 165.94 357.01 167.53 359.80 170.22 C 360.00 171.95 358.25 172.77 357.01 173.50 C 353.90 173.00 351.54 170.68 348.87 169.18 C 337.37 162.64 326.04 155.80 314.61 149.14 Z" fill="#e37d3f" opacity="1.00" stroke="#e37d3f" stroke-width="0.25" data-index="52" style="opacity: 1;"></path>
<path d="M 114.70 158.67 C 121.52 154.75 127.71 149.52 135.33 147.19 C 130.13 151.66 122.73 153.75 119.48 160.23 C 117.64 161.53 115.87 162.94 114.08 164.32 C 113.65 190.94 114.76 217.59 113.85 244.21 C 113.28 242.67 112.63 241.17 111.99 239.67 C 108.47 252.73 110.22 266.43 109.80 279.79 C 109.76 285.16 109.67 290.53 109.72 295.89 C 109.73 306.40 109.89 316.91 109.54 327.41 C 109.17 308.28 109.11 289.13 109.24 269.99 C 109.10 258.32 108.84 246.66 108.96 234.99 C 109.28 217.00 108.85 199.00 109.11 181.01 C 109.42 175.66 109.31 170.28 108.47 164.97 C 107.38 165.41 106.29 165.85 105.20 166.29 C 103.98 208.15 105.37 250.03 105.10 291.90 C 103.80 291.62 102.50 291.35 101.20 291.08 C 100.91 301.66 100.40 312.25 100.80 322.83 C 100.86 326.99 100.75 331.15 100.62 335.31 C 100.20 330.55 100.12 325.77 100.31 321.00 C 100.38 272.00 100.95 223.00 100.79 173.99 C 100.95 170.77 100.51 167.22 102.12 164.31 C 106.23 162.26 110.91 161.40 114.70 158.67 Z" fill="#cdf0df" opacity="1.00" stroke="#cdf0df" stroke-width="0.25" data-index="53" style="opacity: 1;"></path>
<path d="M 119.14 167.38 C 131.63 160.98 143.49 153.45 155.84 146.78 C 154.54 148.05 153.32 149.40 152.08 150.74 C 153.43 150.91 154.77 151.08 156.12 151.26 C 145.36 157.94 133.79 163.20 123.16 170.11 C 123.14 174.76 123.11 179.40 123.12 184.05 C 121.67 183.69 120.22 183.33 118.78 182.97 C 118.65 177.77 118.76 172.57 119.14 167.38 Z" fill="#baedd7" opacity="1.00" stroke="#baedd7" stroke-width="0.25" data-index="54" style="opacity: 1;"></path>
<path d="M 91.25 149.11 C 92.58 148.88 93.90 148.65 95.23 148.42 C 95.57 149.74 95.93 151.06 96.29 152.38 C 93.11 153.90 89.68 155.56 87.94 158.82 C 89.06 160.00 90.42 160.92 91.50 162.14 C 89.26 162.09 87.03 161.85 84.79 161.83 C 86.81 157.52 88.88 153.24 91.25 149.11 Z" fill="#44ac8d" opacity="1.00" stroke="#44ac8d" stroke-width="0.25" data-index="55" style="opacity: 1;"></path>
<path d="M 427.00 153.69 C 429.53 152.37 430.92 149.73 432.58 147.53 C 433.05 148.14 433.99 149.35 434.45 149.96 C 430.66 153.11 426.92 156.32 423.44 159.82 C 422.36 160.17 421.29 160.51 420.22 160.86 C 419.22 159.61 418.22 158.38 417.22 157.14 C 420.54 156.20 423.91 155.28 427.00 153.69 Z" fill="#eb8f3b" opacity="1.00" stroke="#eb8f3b" stroke-width="0.25" data-index="56"></path>
<path d="M 423.44 159.82 C 426.92 156.32 430.66 153.11 434.45 149.96 C 435.15 154.30 433.84 159.57 429.50 161.50 C 426.42 162.18 423.25 161.51 420.22 160.86 C 421.29 160.51 422.36 160.17 423.44 159.82 Z" fill="#722929" opacity="1.00" stroke="#722929" stroke-width="0.25" data-index="57"></path>
<path d="M 381.08 154.92 C 382.30 152.74 384.37 151.32 386.95 151.57 C 393.19 154.78 398.95 158.84 405.23 161.98 C 404.42 161.85 402.80 161.59 401.99 161.46 C 402.05 163.04 402.11 164.62 402.18 166.20 C 402.16 180.05 402.49 193.92 401.84 207.76 C 401.51 212.90 400.98 218.02 400.50 223.14 C 398.98 215.76 398.94 208.19 397.79 200.75 C 397.56 190.17 397.69 179.58 397.51 168.99 C 397.73 166.15 395.38 164.23 393.53 162.46 C 389.96 159.08 385.37 157.18 381.08 154.92 Z" fill="#d16233" opacity="1.00" stroke="#d16233" stroke-width="0.25" data-index="58" style="opacity: 1;"></path>
<path d="M 257.27 157.04 C 259.87 154.48 263.41 153.22 266.63 151.65 C 266.34 156.39 264.05 160.74 260.22 163.56 C 258.86 163.36 257.51 163.14 256.16 162.92 C 256.47 160.97 256.26 158.79 257.27 157.04 Z" fill="#872a25" opacity="1.00" stroke="#872a25" stroke-width="0.25" data-index="59"></path>
<path d="M 87.94 158.82 C 89.68 155.56 93.11 153.90 96.29 152.38 C 96.25 156.26 93.98 159.38 91.50 162.14 C 90.42 160.92 89.06 160.00 87.94 158.82 Z" fill="#26566c" opacity="1.00" stroke="#26566c" stroke-width="0.25" data-index="60" style="opacity: 1;"></path>
<path d="M 378.95 159.54 C 379.23 159.07 379.80 158.12 380.08 157.65 C 383.89 159.71 387.65 162.21 390.11 165.86 C 393.81 171.30 393.56 178.07 393.53 184.35 L 393.14 184.64 C 392.00 185.61 390.50 186.50 390.14 188.05 C 389.23 192.34 389.70 196.76 389.72 201.10 C 389.57 232.07 389.56 263.04 389.81 294.00 C 389.94 299.57 389.44 305.12 389.08 310.66 C 389.64 297.78 389.36 284.89 389.42 272.00 C 389.47 249.00 389.45 226.00 389.40 203.00 C 389.43 197.35 388.56 191.73 388.72 186.08 C 390.27 183.92 392.79 181.94 392.62 179.03 C 393.03 170.48 387.06 162.13 378.95 159.54 Z" fill="#aa5346" opacity="1.00" stroke="#aa5346" stroke-width="0.25" data-index="61"></path>
<path d="M 228.56 164.54 C 231.39 162.81 233.90 160.38 237.15 159.44 C 239.61 158.83 240.14 161.87 241.04 163.46 C 233.45 168.60 225.19 172.62 217.48 177.56 C 211.17 181.01 205.04 184.81 198.54 187.90 C 198.80 185.87 197.29 182.80 199.69 181.67 C 209.28 175.92 219.04 170.43 228.56 164.54 Z" fill="#239963" opacity="1.00" stroke="#239963" stroke-width="0.25" data-index="62" style="opacity: 1;"></path>
<path d="M 401.99 161.46 C 402.80 161.59 404.42 161.85 405.23 161.98 C 405.91 162.15 407.27 162.47 407.95 162.64 C 408.77 162.84 409.60 163.04 410.43 163.24 C 410.95 166.80 411.41 170.39 411.33 174.00 C 411.27 186.08 411.48 198.15 411.29 210.22 C 409.76 208.70 408.12 207.28 406.49 205.88 C 406.42 192.76 406.47 179.65 406.35 166.53 C 404.95 166.42 403.56 166.31 402.18 166.20 C 402.11 164.62 402.05 163.04 401.99 161.46 Z" fill="#bf472d" opacity="1.00" stroke="#bf472d" stroke-width="0.25" data-index="63" style="opacity: 1;"></path>

<path d="M 84.02 165.60 C 86.47 166.23 90.15 166.64 89.87 170.05 C 90.30 186.35 89.69 202.69 90.04 219.00 C 90.17 222.45 89.47 225.84 88.59 229.15 C 88.86 230.12 89.14 231.10 89.42 232.08 C 89.03 231.91 88.26 231.58 87.88 231.42 C 84.44 232.80 81.13 234.47 77.75 236.00 C 79.61 233.26 82.24 231.25 85.13 229.72 C 84.41 226.19 83.80 222.61 83.90 218.99 C 84.09 208.33 83.89 197.67 84.00 187.00 C 84.20 179.86 82.10 172.66 84.02 165.60 Z" fill="#fbfaed" opacity="1.00" stroke="#fbfaed" stroke-width="0.25" data-index="65" style="opacity: 1; visibility: hidden;"></path>
<path d="M 372.46 166.32 C 374.76 164.91 377.35 165.91 379.67 166.72 C 374.54 170.59 371.89 176.47 369.34 182.16 C 363.66 178.09 366.14 168.37 372.46 166.32 Z" fill="#fbd468" opacity="1.00" stroke="#fbd468" stroke-width="0.25" data-index="66" style="opacity: 1;"></path>
<path d="M 138.61 178.67 C 145.25 174.53 152.31 171.08 158.82 166.71 C 159.59 167.84 160.35 168.96 161.12 170.09 C 154.13 174.42 146.65 178.16 140.21 183.26 C 140.35 188.18 141.39 193.06 141.19 198.00 C 140.81 223.33 140.74 248.66 140.75 273.99 C 140.63 280.54 142.00 287.19 140.15 293.61 C 138.42 292.11 135.87 290.78 136.37 288.06 C 136.37 253.69 136.36 219.31 136.35 184.94 C 136.50 182.72 136.20 179.80 138.61 178.67 Z" fill="#acd9ca" opacity="1.00" stroke="#acd9ca" stroke-width="0.25" data-index="67" style="opacity: 1;"></path>

<path d="M 369.34 182.16 C 371.89 176.47 374.54 170.59 379.67 166.72 C 380.70 168.02 381.72 169.34 382.72 170.67 C 380.21 174.03 376.68 176.32 372.98 178.16 C 374.99 179.74 377.01 181.30 379.03 182.88 C 375.78 183.98 372.41 183.60 369.34 182.16 Z" fill="#f19932" opacity="1.00" stroke="#f19932" stroke-width="0.25" data-index="69" style="opacity: 1;"></path>
<path d="M 382.72 170.67 C 383.06 175.13 382.05 179.47 379.03 182.88 C 377.01 181.30 374.99 179.74 372.98 178.16 C 376.68 176.32 380.21 174.03 382.72 170.67 Z" fill="#6f2220" opacity="1.00" stroke="#6f2220" stroke-width="0.25" data-index="70" style="opacity: 1;"></path>
<path d="M 129.43 179.21 C 129.77 179.20 130.45 179.18 130.78 179.17 C 131.91 216.53 130.84 253.92 131.41 291.29 C 129.97 291.83 128.53 292.37 127.10 292.91 C 127.68 265.95 127.23 238.97 127.41 212.00 C 127.58 204.05 126.97 196.05 127.95 188.13 C 128.38 185.15 128.91 182.18 129.43 179.21 Z" fill="#9fd2c5" opacity="1.00" stroke="#9fd2c5" stroke-width="0.25" data-index="71" style="opacity: 1;"></path>
<path d="M 118.78 182.97 C 120.22 183.33 121.67 183.69 123.12 184.05 C 123.12 229.44 123.47 274.85 122.93 320.24 C 121.31 306.23 122.53 292.08 121.92 278.02 C 122.08 275.66 120.32 274.00 118.80 272.49 C 118.22 242.66 118.88 212.81 118.78 182.97 Z" fill="#b5e1d1" opacity="1.00" stroke="#b5e1d1" stroke-width="0.25" data-index="72" style="opacity: 1;"></path>
<path d="M 147.45 188.95 C 147.71 187.39 148.12 185.85 148.75 184.39 C 150.80 184.88 152.84 185.43 154.87 185.98 C 153.73 186.47 152.59 186.95 151.45 187.45 C 150.89 205.42 151.58 223.41 150.77 241.37 C 151.59 257.95 151.30 274.57 151.12 291.16 C 149.69 291.16 148.27 291.17 146.85 291.21 C 146.74 280.14 146.67 269.06 146.80 258.00 C 148.50 235.00 145.25 211.93 147.45 188.95 Z" fill="#7abeb0" opacity="1.00" stroke="#7abeb0" stroke-width="0.25" data-index="73" style="opacity: 1;"></path>
<path d="M 390.14 188.05 C 390.50 186.50 392.00 185.61 393.14 184.64 C 393.30 189.63 393.17 194.63 392.93 199.62 C 391.85 200.12 390.78 200.61 389.72 201.10 C 389.70 196.76 389.23 192.34 390.14 188.05 Z" fill="#cd722d" opacity="1.00" stroke="#cd722d" stroke-width="0.25" data-index="74"></path>
<path d="M 393.14 184.64 L 393.53 184.35 C 393.92 224.57 393.53 264.79 393.82 305.01 C 394.17 311.48 394.48 317.96 394.34 324.44 C 392.95 324.59 391.57 324.76 390.19 324.88 C 389.31 320.19 388.91 315.43 389.08 310.66 C 389.44 305.12 389.94 299.57 389.81 294.00 C 389.56 263.04 389.57 232.07 389.72 201.10 C 390.78 200.61 391.85 200.12 392.93 199.62 C 393.17 194.63 393.30 189.63 393.14 184.64 Z" fill="#e28d36" opacity="1.00" stroke="#e28d36" stroke-width="0.25" data-index="75" style="opacity: 1;"></path>
<path d="M 324.82 186.95 C 327.02 186.66 329.22 186.44 331.42 186.18 C 331.35 186.43 331.20 186.92 331.13 187.17 C 329.83 191.29 328.88 195.72 326.03 199.11 C 323.70 201.87 320.25 203.20 317.10 204.74 C 316.75 202.71 316.43 200.67 315.99 198.66 C 318.17 197.71 320.53 196.94 322.33 195.31 C 323.94 192.83 324.18 189.77 324.82 186.95 Z" fill="#f6ad43" opacity="1.00" stroke="#f6ad43" stroke-width="0.25" data-index="76" style="opacity: 1;"></path>

<path d="M 322.70 187.37 C 323.23 187.26 324.29 187.05 324.82 186.95 C 324.18 189.77 323.94 192.83 322.33 195.31 C 320.53 196.94 318.17 197.71 315.99 198.66 C 317.77 194.61 321.48 191.71 322.70 187.37 Z" fill="#fbf4d1" opacity="1.00" stroke="#fbf4d1" stroke-width="0.25" data-index="78"></path>
<path d="M 180.96 195.01 C 182.57 192.70 183.56 190.02 185.08 187.65 C 188.07 186.94 190.82 188.38 192.86 190.45 C 186.13 192.99 180.84 198.00 175.10 202.14 C 175.20 200.35 175.28 198.56 175.37 196.78 C 177.23 196.22 179.32 196.13 180.96 195.01 Z" fill="#f5bd52" opacity="1.00" stroke="#f5bd52" stroke-width="0.25" data-index="79"></path>
<path d="M 326.03 199.11 C 328.88 195.72 329.83 191.29 331.13 187.17 C 333.90 189.28 336.22 192.01 337.13 195.44 C 334.10 197.23 331.18 199.18 328.30 201.19 C 325.48 203.13 322.54 204.88 319.60 206.62 C 318.97 206.15 317.72 205.21 317.10 204.74 C 320.25 203.20 323.70 201.87 326.03 199.11 Z" fill="#e36f2c" opacity="1.00" stroke="#e36f2c" stroke-width="0.25" data-index="80"></path>
<path d="M 175.10 202.14 C 180.84 198.00 186.13 192.99 192.86 190.45 C 193.29 190.75 194.15 191.35 194.58 191.65 C 191.66 195.64 188.99 199.96 185.09 203.09 C 182.63 205.13 179.23 204.36 176.37 203.84 C 176.05 203.42 175.42 202.57 175.10 202.14 Z" fill="#f38a31" opacity="1.00" stroke="#f38a31" stroke-width="0.25" data-index="81"></path>
<path d="M 194.58 191.65 C 195.25 192.71 195.92 193.77 196.62 194.81 C 192.84 200.34 186.67 203.57 182.99 209.17 C 180.48 207.81 178.01 206.24 176.37 203.84 C 179.23 204.36 182.63 205.13 185.09 203.09 C 188.99 199.96 191.66 195.64 194.58 191.65 Z" fill="#d55c2c" opacity="1.00" stroke="#d55c2c" stroke-width="0.25" data-index="82"></path>
<path d="M 379.85 194.06 C 381.40 193.22 382.89 192.27 384.32 191.23 C 386.58 199.70 384.44 208.41 384.65 217.00 C 384.69 243.96 384.74 270.91 384.71 297.86 C 384.23 297.70 383.27 297.37 382.79 297.20 C 381.80 296.50 380.79 295.82 379.78 295.17 C 379.94 281.45 379.37 267.71 380.20 254.00 C 380.40 243.00 380.25 232.00 380.28 221.00 C 380.38 212.02 379.46 203.05 379.85 194.06 Z" fill="#db914e" opacity="1.00" stroke="#db914e" stroke-width="0.25" data-index="83" style="opacity: 1;"></path>
<path d="M 350.78 194.01 C 352.12 194.62 354.96 194.01 354.52 196.26 C 354.76 208.78 354.34 221.31 354.51 233.84 L 353.71 233.81 C 353.08 233.78 351.81 233.73 351.18 233.70 C 350.49 220.80 350.83 207.88 350.78 194.97 L 350.78 194.01 Z" fill="#c75838" opacity="1.00" stroke="#c75838" stroke-width="0.25" data-index="84"></path>

<path d="M 380.85 207.93 C 381.57 203.15 379.35 197.15 383.48 193.51 C 383.97 198.31 383.86 203.14 383.72 207.96 C 383.00 207.95 381.56 207.94 380.85 207.93 Z" fill="#e5843f" opacity="1.00" stroke="#e5843f" stroke-width="0.25" data-index="86"></path>
<path d="M 161.05 233.31 C 162.10 220.43 159.95 207.52 161.43 194.68 C 162.15 204.10 161.64 213.56 161.65 223.00 C 161.73 227.33 160.91 231.99 163.04 235.98 C 163.86 237.97 165.14 239.82 165.45 241.99 C 165.03 245.25 162.00 247.59 161.76 250.93 C 161.48 253.72 161.52 256.53 161.49 259.33 C 161.47 258.91 161.45 258.07 161.44 257.65 C 161.30 254.67 161.03 251.69 160.73 248.73 C 160.05 248.41 158.68 247.76 158.00 247.44 C 156.15 246.57 153.94 244.46 155.02 242.26 C 155.91 239.95 156.64 237.58 157.04 235.14 C 157.24 234.98 157.63 234.66 157.82 234.49 C 158.63 234.20 160.24 233.60 161.05 233.31 Z" fill="#b5f8d3" opacity="1.00" stroke="#b5f8d3" stroke-width="0.25" data-index="87"></path>
<path d="M 182.99 209.17 C 186.67 203.57 192.84 200.34 196.62 194.81 C 196.55 199.45 195.31 204.52 191.62 207.64 C 189.16 209.60 185.93 209.39 182.99 209.17 Z" fill="#792622" opacity="1.00" stroke="#792622" stroke-width="0.25" data-index="88"></path>
<path d="M 350.50 233.07 C 350.50 220.37 350.44 207.67 350.78 194.97 C 350.83 207.88 350.49 220.80 351.18 233.70 C 351.81 233.73 353.08 233.78 353.71 233.81 C 352.97 234.48 352.23 235.16 351.50 235.84 C 354.27 236.82 356.80 238.37 358.65 240.70 C 356.50 242.93 354.33 245.15 351.94 247.12 C 349.76 246.93 347.11 245.63 347.44 243.03 C 348.31 239.66 350.71 236.68 350.50 233.07 Z" fill="#f9ab46" opacity="1.00" stroke="#f9ab46" stroke-width="0.25" data-index="89" style="opacity: 1;"></path>
<path d="M 328.30 201.19 C 331.18 199.18 334.10 197.23 337.13 195.44 C 336.48 199.37 336.53 204.29 332.87 206.81 C 329.82 209.27 325.66 208.94 322.06 208.19 C 323.98 208.06 325.90 207.85 327.82 207.67 C 327.90 205.50 328.23 203.35 328.30 201.19 Z" fill="#722223" opacity="1.00" stroke="#722223" stroke-width="0.25" data-index="90"></path>
<path d="M 361.29 229.00 C 361.43 217.73 360.96 206.45 361.58 195.19 C 361.60 202.18 361.87 209.17 362.27 216.15 C 363.34 215.11 364.39 214.04 365.45 212.99 C 365.48 239.24 365.47 265.50 365.63 291.75 C 364.20 291.70 362.77 291.66 361.35 291.62 C 361.07 270.75 361.71 249.87 361.29 229.00 Z" fill="#ca5b34" opacity="1.00" stroke="#ca5b34" stroke-width="0.25" data-index="91" style="opacity: 1;"></path>
<path d="M 361.58 195.19 C 363.05 195.43 364.33 196.03 365.43 196.98 C 365.67 202.31 365.41 207.65 365.45 212.99 C 364.39 214.04 363.34 215.11 362.27 216.15 C 361.87 209.17 361.60 202.18 361.58 195.19 Z" fill="#b6482e" opacity="1.00" stroke="#b6482e" stroke-width="0.25" data-index="92" style="opacity: 1;"></path>
<path d="M 371.64 196.91 C 372.95 196.52 374.26 196.13 375.57 195.70 C 375.50 223.80 375.45 251.90 375.58 280.01 C 375.65 284.10 375.25 288.18 374.46 292.20 C 371.00 291.46 371.66 287.74 371.56 285.04 C 371.64 255.66 371.59 226.29 371.64 196.91 Z" fill="#db914e" opacity="1.00" stroke="#db914e" stroke-width="0.25" data-index="93" style="opacity: 1;"></path>
<path d="M 319.60 206.62 C 322.54 204.88 325.48 203.13 328.30 201.19 C 328.23 203.35 327.90 205.50 327.82 207.67 C 325.90 207.85 323.98 208.06 322.06 208.19 C 321.22 207.69 320.40 207.17 319.60 206.62 Z" fill="#c64b28" opacity="1.00" stroke="#c64b28" stroke-width="0.25" data-index="94"></path>
<path d="M 397.79 200.75 C 398.94 208.19 398.98 215.76 400.50 223.14 C 400.98 218.02 401.51 212.90 401.84 207.76 C 402.46 221.17 402.08 234.58 402.23 248.00 C 402.23 262.07 402.46 276.16 402.16 290.23 C 401.84 289.18 401.51 288.14 401.17 287.10 C 400.00 288.07 398.84 289.05 397.68 290.03 C 397.68 260.27 397.65 230.51 397.79 200.75 Z" fill="#ee8f3d" opacity="1.00" stroke="#ee8f3d" stroke-width="0.25" data-index="95" style="opacity: 1;"></path>
<path d="M 406.49 205.88 C 408.12 207.28 409.76 208.70 411.29 210.22 C 411.72 219.14 411.33 228.08 411.44 237.00 C 411.36 247.41 411.71 257.82 411.28 268.23 C 409.61 269.73 407.92 271.22 406.41 272.88 C 406.40 250.55 406.48 228.21 406.49 205.88 Z" fill="#e87f3c" opacity="1.00" stroke="#e87f3c" stroke-width="0.25" data-index="96" style="opacity: 1;"></path>
<path d="M 168.17 206.63 C 169.54 207.65 171.69 208.16 172.00 210.12 C 172.46 212.03 172.39 214.02 172.43 215.99 C 172.35 229.33 172.43 242.67 172.61 256.01 C 172.59 258.46 172.73 261.08 171.43 263.28 C 170.18 263.52 168.90 263.66 167.63 263.75 C 167.48 252.50 167.90 241.25 167.72 230.00 C 167.99 222.21 167.24 214.39 168.17 206.63 Z" fill="#4daca4" opacity="1.00" stroke="#4daca4" stroke-width="0.25" data-index="97"></path>
<path d="M 380.85 207.93 C 381.56 207.94 383.00 207.95 383.72 207.96 C 384.07 227.30 384.54 246.66 384.00 266.01 C 383.38 276.42 383.92 286.85 383.43 297.26 C 382.40 295.32 381.24 293.33 381.34 291.05 C 381.27 275.69 380.01 260.36 380.43 245.00 C 380.61 232.64 380.04 220.26 380.85 207.93 Z" fill="#e9b14c" opacity="1.00" stroke="#e9b14c" stroke-width="0.25" data-index="98" style="opacity: 1;"></path>
<path d="M 338.74 214.04 C 339.70 212.65 341.55 211.87 343.13 212.75 C 344.04 219.17 343.38 225.69 343.64 232.15 C 341.91 231.78 340.19 231.41 338.48 231.05 C 338.64 225.38 338.07 219.68 338.74 214.04 Z" fill="#d97b34" opacity="1.00" stroke="#d97b34" stroke-width="0.25" data-index="99"></path>
<path d="M 77.75 236.00 C 81.13 234.47 84.44 232.80 87.88 231.42 C 87.56 234.57 87.34 237.72 87.07 240.87 C 86.65 241.24 85.79 241.98 85.36 242.34 C 83.95 243.47 82.48 244.54 81.11 245.73 C 79.44 242.70 78.41 239.38 77.75 236.00 Z" fill="#d1fbd4" opacity="1.00" stroke="#d1fbd4" stroke-width="0.25" data-index="100"></path>
<path d="M 338.48 231.05 C 340.19 231.41 341.91 231.78 343.64 232.15 C 343.71 237.38 343.59 242.61 343.58 247.84 C 341.89 248.23 340.21 248.61 338.54 249.01 C 338.43 243.02 338.51 237.03 338.48 231.05 Z" fill="#e89747" opacity="1.00" stroke="#e89747" stroke-width="0.25" data-index="101"></path>
<path d="M 87.88 231.42 C 88.26 231.58 89.03 231.91 89.42 232.08 C 91.34 233.16 92.78 234.88 94.25 236.49 C 93.68 236.44 92.52 236.33 91.94 236.27 C 90.60 237.55 89.29 238.86 87.92 240.12 L 87.07 240.87 C 87.34 237.72 87.56 234.57 87.88 231.42 Z" fill="#a7e7b9" opacity="1.00" stroke="#a7e7b9" stroke-width="0.25" data-index="102" style="opacity: 1;"></path>
<path d="M 418.60 235.61 C 421.38 231.30 427.89 231.37 431.70 234.23 C 433.96 235.75 433.94 238.78 434.80 241.11 C 434.27 241.40 433.21 241.97 432.68 242.26 C 431.77 239.44 431.82 235.00 427.87 234.87 C 425.13 233.85 423.24 235.93 421.91 238.00 C 420.87 239.24 419.91 240.56 418.98 241.89 C 418.63 242.37 417.93 243.32 417.59 243.80 C 417.44 241.07 416.73 237.95 418.60 235.61 Z" fill="#d19045" opacity="1.00" stroke="#d19045" stroke-width="0.25" data-index="103" style="opacity: 1;"></path>
<path d="M 421.91 238.00 C 423.24 235.93 425.13 233.85 427.87 234.87 C 431.82 235.00 431.77 239.44 432.68 242.26 C 431.30 243.00 429.93 243.76 428.53 244.45 C 428.40 241.34 428.06 238.25 427.62 235.17 C 425.70 236.07 423.78 236.99 421.91 238.00 Z" fill="#f4ba47" opacity="1.00" stroke="#f4ba47" stroke-width="0.25" data-index="104" style="opacity: 1;"></path>
<path d="M 87.92 240.12 C 89.29 238.86 90.60 237.55 91.94 236.27 C 92.52 236.33 93.68 236.44 94.25 236.49 C 93.89 239.18 93.58 241.88 93.40 244.59 C 89.50 244.70 85.79 245.97 82.22 247.46 C 81.94 247.03 81.39 246.16 81.11 245.73 C 82.48 244.54 83.95 243.47 85.36 242.34 C 86.83 243.02 88.38 244.01 90.04 243.34 C 89.35 242.25 88.64 241.18 87.92 240.12 Z" fill="#88bfa7" opacity="1.00" stroke="#88bfa7" stroke-width="0.25" data-index="105"></path>
<path d="M 421.91 238.00 C 423.78 236.99 425.70 236.07 427.62 235.17 C 428.06 238.25 428.40 241.34 428.53 244.45 C 425.07 245.22 421.86 243.63 418.98 241.89 C 419.91 240.56 420.87 239.24 421.91 238.00 Z" fill="#fdee81" opacity="1.00" stroke="#fdee81" stroke-width="0.25" data-index="106" style="opacity: 1;"></path>
<path d="M 111.99 239.67 C 112.63 241.17 113.28 242.67 113.85 244.21 C 113.87 256.78 114.11 269.35 114.07 281.92 C 112.65 281.21 111.22 280.50 109.80 279.79 C 110.22 266.43 108.47 252.73 111.99 239.67 Z" fill="#aadcd2" opacity="1.00" stroke="#aadcd2" stroke-width="0.25" data-index="107" style="opacity: 1;"></path>
<path d="M 87.07 240.87 L 87.92 240.12 C 88.64 241.18 89.35 242.25 90.04 243.34 C 88.38 244.01 86.83 243.02 85.36 242.34 C 85.79 241.98 86.65 241.24 87.07 240.87 Z" fill="#3f8b6e" opacity="1.00" stroke="#3f8b6e" stroke-width="0.25" data-index="108" style="opacity: 1;"></path>
<path d="M 351.94 247.12 C 354.33 245.15 356.50 242.93 358.65 240.70 C 358.91 241.37 359.43 242.70 359.69 243.36 C 357.88 245.95 354.97 246.91 351.94 247.12 Z" fill="#b7573e" opacity="1.00" stroke="#b7573e" stroke-width="0.25" data-index="109"></path>
<path d="M 432.68 242.26 C 433.21 241.97 434.27 241.40 434.80 241.11 C 433.37 245.18 429.68 249.20 424.99 248.55 C 421.69 248.80 419.82 245.66 417.59 243.80 C 417.93 243.32 418.63 242.37 418.98 241.89 C 421.86 243.63 425.07 245.22 428.53 244.45 C 429.93 243.76 431.30 243.00 432.68 242.26 Z" fill="#ac5131" opacity="1.00" stroke="#ac5131" stroke-width="0.25" data-index="110" style="opacity: 1;"></path>
<path d="M 82.22 247.46 C 85.79 245.97 89.50 244.70 93.40 244.59 C 90.57 247.85 86.23 248.29 82.22 247.46 Z" fill="#b6e9d3" opacity="1.00" stroke="#b6e9d3" stroke-width="0.25" data-index="111"></path>
<path d="M 158.00 247.44 C 158.68 247.76 160.05 248.41 160.73 248.73 C 161.03 251.69 161.30 254.67 161.44 257.65 C 160.12 258.11 158.80 258.57 157.49 259.03 C 157.44 255.16 157.49 251.28 158.00 247.44 Z" fill="#72b2a9" opacity="1.00" stroke="#72b2a9" stroke-width="0.25" data-index="112"></path>
<path d="M 338.54 249.01 C 340.21 248.61 341.89 248.23 343.58 247.84 C 343.58 253.96 343.80 260.09 343.28 266.19 C 341.77 265.29 339.39 264.86 339.21 262.75 C 338.20 258.25 338.77 253.58 338.54 249.01 Z" fill="#d1683e" opacity="1.00" stroke="#d1683e" stroke-width="0.25" data-index="113"></path>
<path d="M 350.68 254.96 C 350.40 252.81 351.99 251.20 353.11 249.57 C 353.99 252.29 354.59 255.10 354.44 257.98 C 354.27 267.92 354.73 277.87 354.21 287.81 C 352.38 287.31 350.37 286.22 350.71 284.00 C 350.65 274.32 350.73 264.63 350.68 254.96 Z" fill="#c35133" opacity="1.00" stroke="#c35133" stroke-width="0.25" data-index="114"></path>

<path d="M 421.07 252.91 C 422.57 252.64 424.10 252.21 425.65 252.41 C 427.12 252.96 427.33 254.84 427.62 256.19 C 428.75 265.45 427.10 274.74 427.02 284.01 C 427.96 298.64 427.92 313.36 426.76 327.99 C 425.27 327.87 423.78 327.76 422.30 327.64 C 421.56 306.10 422.17 284.53 422.00 262.98 C 421.88 259.60 421.49 256.25 421.07 252.91 Z" fill="#f9f9e8" opacity="1.00" stroke="#f9f9e8" stroke-width="0.25" data-index="116" style="opacity: 1; visibility: hidden;"></path>
<path d="M 157.49 259.03 C 158.80 258.57 160.12 258.11 161.44 257.65 C 161.45 258.07 161.47 258.91 161.49 259.33 C 161.52 268.71 161.83 278.08 161.60 287.46 C 160.26 287.70 158.93 287.94 157.59 288.17 C 157.35 278.46 157.58 268.75 157.49 259.03 Z" fill="#50a398" opacity="1.00" stroke="#50a398" stroke-width="0.25" data-index="117"></path>
<path d="M 326.44 262.53 C 330.42 262.23 334.30 263.82 336.35 267.38 C 335.92 267.17 335.07 266.75 334.64 266.53 C 332.74 265.56 330.77 264.72 328.84 263.80 C 326.42 269.45 324.50 275.99 318.99 279.48 C 318.52 279.48 317.57 279.48 317.10 279.49 L 316.09 279.46 C 319.77 273.93 325.47 269.50 326.44 262.53 Z" fill="#f9e481" opacity="1.00" stroke="#f9e481" stroke-width="0.25" data-index="118"></path>
<path d="M 176.49 267.59 C 178.09 262.09 185.30 262.67 189.85 263.21 C 187.64 263.52 185.60 264.52 184.29 266.36 C 181.10 270.55 176.02 273.59 175.39 279.27 C 175.27 275.35 174.95 271.31 176.49 267.59 Z" fill="#fcf3d4" opacity="1.00" stroke="#fcf3d4" stroke-width="0.25" data-index="119"></path>
<path d="M 319.94 264.36 C 322.11 263.78 324.28 263.17 326.44 262.53 C 325.47 269.50 319.77 273.93 316.09 279.46 L 315.65 280.05 C 315.94 278.18 316.10 276.29 316.61 274.47 C 318.97 271.68 322.08 269.41 323.24 265.76 C 322.41 265.41 320.77 264.71 319.94 264.36 Z" fill="#f8efc1" opacity="1.00" stroke="#f8efc1" stroke-width="0.25" data-index="120"></path>
<path d="M 184.29 266.36 C 185.60 264.52 187.64 263.52 189.85 263.21 L 190.83 263.10 L 190.64 264.02 C 189.82 267.29 188.61 270.67 186.05 273.00 C 183.17 275.58 179.83 277.59 176.44 279.42 L 175.39 279.27 C 176.02 273.59 181.10 270.55 184.29 266.36 Z" fill="#f7c03c" opacity="1.00" stroke="#f7c03c" stroke-width="0.25" data-index="121"></path>
<path d="M 328.84 263.80 C 330.77 264.72 332.74 265.56 334.64 266.53 C 332.28 270.44 330.09 274.61 326.59 277.64 C 324.51 279.47 321.57 279.33 318.99 279.48 C 324.50 275.99 326.42 269.45 328.84 263.80 Z" fill="#fccf38" opacity="1.00" stroke="#fccf38" stroke-width="0.25" data-index="122"></path>
<path d="M 186.05 273.00 C 188.61 270.67 189.82 267.29 190.64 264.02 C 192.61 265.76 194.54 267.58 196.40 269.46 C 195.61 270.21 194.83 270.97 194.04 271.73 C 190.16 274.52 186.88 278.19 182.65 280.46 C 180.53 280.53 178.47 279.93 176.44 279.42 C 179.83 277.59 183.17 275.58 186.05 273.00 Z" fill="#e27127" opacity="1.00" stroke="#e27127" stroke-width="0.25" data-index="123"></path>
<path d="M 334.64 266.53 C 335.07 266.75 335.92 267.17 336.35 267.38 L 337.18 268.04 C 335.88 273.12 332.08 276.94 327.94 279.89 C 325.88 281.26 323.73 282.51 321.50 283.57 C 319.23 283.93 318.55 280.71 317.10 279.49 C 317.57 279.48 318.52 279.48 318.99 279.48 C 321.57 279.33 324.51 279.47 326.59 277.64 C 330.09 274.61 332.28 270.44 334.64 266.53 Z" fill="#f3a23b" opacity="1.00" stroke="#f3a23b" stroke-width="0.25" data-index="124"></path>
<path d="M 337.18 268.04 C 337.64 271.83 338.15 275.73 337.30 279.50 C 336.17 281.74 334.47 283.73 332.40 285.15 C 329.58 285.75 326.66 285.55 323.80 285.66 C 325.85 285.40 327.90 285.15 329.95 284.89 C 329.28 283.22 328.60 281.55 327.94 279.89 C 332.08 276.94 335.88 273.12 337.18 268.04 Z" fill="#682222" opacity="1.00" stroke="#682222" stroke-width="0.25" data-index="125"></path>
<path d="M 406.41 272.88 C 407.92 271.22 409.61 269.73 411.28 268.23 C 411.25 274.28 411.85 280.39 411.14 286.41 C 409.54 288.95 407.82 291.43 406.42 294.10 C 406.44 287.02 406.42 279.95 406.41 272.88 Z" fill="#cd5b32" opacity="1.00" stroke="#cd5b32" stroke-width="0.25" data-index="126" style="opacity: 1;"></path>
<path d="M 194.04 271.73 C 194.83 270.97 195.61 270.21 196.40 269.46 C 196.88 273.94 197.32 279.27 193.60 282.59 C 190.84 285.89 186.24 285.71 182.35 285.58 C 186.74 281.41 192.19 277.85 194.04 271.73 Z" fill="#7d2823" opacity="1.00" stroke="#7d2823" stroke-width="0.25" data-index="127"></path>
<path d="M 182.65 280.46 C 186.88 278.19 190.16 274.52 194.04 271.73 C 192.19 277.85 186.74 281.41 182.35 285.58 C 179.72 283.84 177.53 281.57 175.39 279.27 L 176.44 279.42 C 178.47 279.93 180.53 280.53 182.65 280.46 Z" fill="#c2542d" opacity="1.00" stroke="#c2542d" stroke-width="0.25" data-index="128"></path>
<path d="M 118.80 272.49 C 120.32 274.00 122.08 275.66 121.92 278.02 C 122.53 292.08 121.31 306.23 122.93 320.24 C 122.97 323.21 125.55 324.90 127.89 326.17 L 127.71 326.93 C 127.07 329.32 126.15 331.61 125.23 333.90 C 122.81 332.29 120.44 330.61 117.88 329.22 C 118.27 329.17 119.05 329.06 119.43 329.01 C 119.64 328.35 120.04 327.03 120.24 326.37 C 118.36 326.09 116.48 325.82 114.60 325.56 C 115.95 325.33 117.31 325.11 118.66 324.88 C 118.43 307.42 118.44 289.95 118.80 272.49 Z" fill="#a0e3b6" opacity="1.00" stroke="#a0e3b6" stroke-width="0.25" data-index="129" style="opacity: 1;"></path>
<path d="M 109.80 279.79 C 111.22 280.50 112.65 281.21 114.07 281.92 C 114.14 290.70 114.03 299.47 113.81 308.24 C 113.63 303.88 113.23 299.53 112.98 295.17 C 111.89 295.41 110.80 295.65 109.72 295.89 C 109.67 290.53 109.76 285.16 109.80 279.79 Z" fill="#96cdc7" opacity="1.00" stroke="#96cdc7" stroke-width="0.25" data-index="130"></path>
<path d="M 321.50 283.57 C 323.73 282.51 325.88 281.26 327.94 279.89 C 328.60 281.55 329.28 283.22 329.95 284.89 C 327.90 285.15 325.85 285.40 323.80 285.66 C 323.23 285.14 322.07 284.09 321.50 283.57 Z" fill="#e26625" opacity="1.00" stroke="#e26625" stroke-width="0.25" data-index="131"></path>
<path d="M 397.68 290.03 C 398.84 289.05 400.00 288.07 401.17 287.10 C 401.51 288.14 401.84 289.18 402.16 290.23 C 402.21 302.67 402.47 315.12 402.07 327.55 C 400.84 327.57 399.61 327.60 398.38 327.63 C 397.47 315.11 397.78 302.56 397.68 290.03 Z" fill="#cf663f" opacity="1.00" stroke="#cf663f" stroke-width="0.25" data-index="132"></path>
<path d="M 406.42 294.10 C 407.82 291.43 409.54 288.95 411.14 286.41 C 411.62 301.60 411.35 316.82 411.36 332.02 C 411.57 333.89 408.78 333.70 407.67 334.54 C 407.31 333.23 406.98 331.92 406.67 330.61 C 406.28 318.45 406.52 306.27 406.42 294.10 Z" fill="#bc4a2e" opacity="1.00" stroke="#bc4a2e" stroke-width="0.25" data-index="133"></path>
<path d="M 101.20 291.08 C 102.50 291.35 103.80 291.62 105.10 291.90 C 104.75 301.83 105.22 311.77 105.10 321.71 C 103.66 322.08 102.23 322.45 100.80 322.83 C 100.40 312.25 100.91 301.66 101.20 291.08 Z" fill="#98cbc4" opacity="1.00" stroke="#98cbc4" stroke-width="0.25" data-index="134" style="opacity: 1;"></path>
<path d="M 176.02 294.34 C 180.30 291.72 184.25 295.56 188.35 296.66 C 195.28 298.81 201.35 302.88 207.64 306.40 C 214.62 310.45 221.83 314.10 228.79 318.21 C 232.73 320.55 237.25 322.11 240.47 325.50 C 243.35 328.51 246.58 331.29 248.57 335.02 C 244.20 333.55 240.47 330.81 236.67 328.29 C 216.49 316.91 196.21 305.70 176.02 294.34 Z" fill="#288a7e" opacity="1.00" stroke="#288a7e" stroke-width="0.25" data-index="135"></path>
<path d="M 321.35 297.38 C 325.05 295.90 328.98 293.20 333.12 294.76 C 331.27 297.14 328.67 298.68 326.06 300.06 C 312.95 307.24 299.94 314.59 286.91 321.89 C 282.18 325.01 277.12 327.74 271.49 328.79 C 272.60 326.07 273.93 323.15 276.63 321.67 C 283.83 317.49 291.32 313.81 298.43 309.47 C 305.99 305.29 313.34 300.69 321.35 297.38 Z" fill="#298778" opacity="1.00" stroke="#298778" stroke-width="0.25" data-index="136"></path>
<path d="M 109.72 295.89 C 110.80 295.65 111.89 295.41 112.98 295.17 C 113.23 299.53 113.63 303.88 113.81 308.24 C 113.88 314.02 114.10 319.80 114.60 325.56 C 116.48 325.82 118.36 326.09 120.24 326.37 C 120.04 327.03 119.64 328.35 119.43 329.01 C 119.05 329.06 118.27 329.17 117.88 329.22 C 115.11 328.60 112.32 328.01 109.54 327.41 C 109.89 316.91 109.73 306.40 109.72 295.89 Z" fill="#79bbb3" opacity="1.00" stroke="#79bbb3" stroke-width="0.25" data-index="137"></path>
<path d="M 135.49 295.50 C 138.04 294.43 140.67 296.07 143.15 296.63 C 139.04 297.91 134.49 299.14 131.66 302.64 C 130.24 304.22 130.53 306.50 130.68 308.45 C 130.80 308.83 131.03 309.59 131.15 309.97 C 126.55 305.20 130.64 298.19 135.49 295.50 Z" fill="#f5f4ae" opacity="1.00" stroke="#f5f4ae" stroke-width="0.25" data-index="138" style="opacity: 1;"></path>
<path d="M 131.66 302.64 C 134.49 299.14 139.04 297.91 143.15 296.63 L 144.07 296.35 L 143.61 297.18 C 142.25 299.59 140.96 302.09 139.06 304.12 C 136.84 306.49 133.60 307.34 130.68 308.45 C 130.53 306.50 130.24 304.22 131.66 302.64 Z" fill="#f7e967" opacity="1.00" stroke="#f7e967" stroke-width="0.25" data-index="139" style="opacity: 1;"></path>
<path d="M 332.97 301.96 C 337.02 299.74 341.00 296.36 345.94 297.03 C 346.44 300.52 343.56 302.36 340.92 303.87 C 317.05 317.24 293.48 331.17 269.59 344.50 C 267.87 345.35 266.04 345.93 264.22 346.53 C 264.33 344.88 264.06 343.15 264.61 341.56 C 272.45 335.80 281.29 331.61 289.61 326.59 C 304.07 318.40 318.56 310.25 332.97 301.96 Z" fill="#b9442d" opacity="1.00" stroke="#b9442d" stroke-width="0.25" data-index="140"></path>
<path d="M 370.93 297.45 C 372.71 297.30 374.87 295.93 376.35 297.54 C 377.91 299.34 378.92 301.54 380.04 303.63 C 377.34 304.41 374.60 305.10 372.04 306.29 C 373.00 308.77 375.99 309.30 378.02 310.62 C 374.81 312.36 370.94 313.31 367.61 311.26 C 366.60 306.43 370.89 302.32 370.93 297.45 Z" fill="#fdea64" opacity="1.00" stroke="#fdea64" stroke-width="0.25" data-index="141"></path>
<path d="M 139.06 304.12 C 140.96 302.09 142.25 299.59 143.61 297.18 C 144.87 298.98 147.25 300.52 146.85 303.01 C 146.77 305.03 146.52 307.04 146.26 309.05 C 146.38 307.19 146.41 305.34 146.49 303.48 C 143.93 305.75 141.10 307.71 137.94 309.06 C 135.92 309.95 133.86 310.77 131.82 311.64 C 131.58 311.08 131.35 310.53 131.15 309.97 C 131.03 309.59 130.80 308.83 130.68 308.45 C 133.60 307.34 136.84 306.49 139.06 304.12 Z" fill="#ee9f3c" opacity="1.00" stroke="#ee9f3c" stroke-width="0.25" data-index="142" style="opacity: 1;"></path>
<path d="M 165.37 298.48 C 168.67 298.16 172.18 297.97 175.09 299.84 C 187.65 306.94 200.21 314.07 212.77 321.18 L 212.57 321.69 C 212.02 323.10 211.46 324.51 210.91 325.93 C 198.59 318.96 186.28 312.00 174.00 304.97 C 170.86 303.21 167.34 301.68 165.37 298.48 Z" fill="#4aa398" opacity="1.00" stroke="#4aa398" stroke-width="0.25" data-index="143"></path>
<path d="M 137.94 309.06 C 141.10 307.71 143.93 305.75 146.49 303.48 C 146.41 305.34 146.38 307.19 146.26 309.05 C 145.37 312.91 140.92 313.20 137.73 313.80 C 137.80 312.21 137.87 310.63 137.94 309.06 Z" fill="#882c21" opacity="1.00" stroke="#882c21" stroke-width="0.25" data-index="144"></path>
<path d="M 155.19 304.28 C 158.30 301.43 161.21 305.54 164.05 306.82 C 163.34 307.97 162.63 309.12 161.92 310.27 C 159.52 308.60 155.62 307.64 155.19 304.28 Z" fill="#4c897c" opacity="1.00" stroke="#4c897c" stroke-width="0.25" data-index="145"></path>
<path d="M 249.35 304.36 C 253.12 301.64 258.01 302.88 262.30 303.12 C 260.02 303.45 257.65 303.52 255.48 304.34 C 252.63 307.84 250.57 312.35 245.78 313.59 C 246.48 310.39 246.86 306.74 249.35 304.36 Z" fill="#fcf4d9" opacity="1.00" stroke="#fcf4d9" stroke-width="0.25" data-index="146"></path>
<path d="M 245.78 313.59 C 250.57 312.35 252.63 307.84 255.48 304.34 C 257.65 303.52 260.02 303.45 262.30 303.12 C 263.51 305.12 264.78 307.08 266.03 309.05 C 265.20 308.22 264.34 307.43 263.45 306.68 C 261.54 305.74 259.55 304.23 257.31 304.73 C 254.41 308.25 252.36 312.53 248.68 315.39 L 247.97 316.00 C 247.78 316.18 247.40 316.56 247.21 316.74 C 246.97 317.27 246.51 318.33 246.27 318.86 C 246.12 317.10 245.94 315.34 245.78 313.59 Z" fill="#f5d888" opacity="1.00" stroke="#f5d888" stroke-width="0.25" data-index="147"></path>
<path d="M 372.04 306.29 C 374.60 305.10 377.34 304.41 380.04 303.63 C 379.40 305.97 378.65 308.28 378.02 310.62 C 375.99 309.30 373.00 308.77 372.04 306.29 Z" fill="#6c3418" opacity="1.00" stroke="#6c3418" stroke-width="0.25" data-index="148" style="opacity: 1;"></path>
<path d="M 248.68 315.39 C 252.36 312.53 254.41 308.25 257.31 304.73 C 259.55 304.23 261.54 305.74 263.45 306.68 C 261.19 308.99 259.06 311.50 256.33 313.28 C 253.96 314.53 251.22 314.70 248.68 315.39 Z" fill="#fdcd38" opacity="1.00" stroke="#fdcd38" stroke-width="0.25" data-index="149"></path>
<path d="M 345.53 307.48 C 348.15 306.25 350.94 303.67 353.99 305.12 C 354.15 305.60 354.47 306.56 354.63 307.04 C 349.75 311.71 343.28 314.09 337.52 317.45 C 332.25 320.06 327.47 323.60 322.06 325.90 C 320.05 325.96 318.04 325.93 316.04 325.91 C 317.02 324.90 318.00 323.89 319.02 322.92 C 327.33 316.97 336.73 312.66 345.53 307.48 Z" fill="#cf6439" opacity="1.00" stroke="#cf6439" stroke-width="0.25" data-index="150"></path>
<path d="M 164.05 306.82 C 176.88 313.09 189.03 320.68 201.64 327.40 C 205.94 329.72 210.23 332.10 214.18 335.02 C 211.43 334.07 208.64 333.25 205.85 332.46 C 206.59 333.62 207.33 334.78 208.12 335.91 C 199.99 332.37 192.67 327.26 184.78 323.24 C 176.87 319.44 169.61 314.48 161.92 310.27 C 162.63 309.12 163.34 307.97 164.05 306.82 Z" fill="#edbf5f" opacity="1.00" stroke="#edbf5f" stroke-width="0.25" data-index="151"></path>
<path d="M 263.45 306.68 C 264.34 307.43 265.20 308.22 266.03 309.05 L 266.52 309.77 C 263.88 313.46 260.34 316.43 256.32 318.53 C 254.41 319.08 252.45 319.68 250.44 319.63 C 249.41 318.57 248.75 317.23 247.97 316.00 L 248.68 315.39 C 251.22 314.70 253.96 314.53 256.33 313.28 C 259.06 311.50 261.19 308.99 263.45 306.68 Z" fill="#f29630" opacity="1.00" stroke="#f29630" stroke-width="0.25" data-index="152"></path>
<path d="M 131.82 311.64 C 133.86 310.77 135.92 309.95 137.94 309.06 C 137.87 310.63 137.80 312.21 137.73 313.80 C 135.75 313.12 133.78 312.38 131.82 311.64 Z" fill="#ba6b46" opacity="1.00" stroke="#ba6b46" stroke-width="0.25" data-index="153" style="opacity: 1;"></path>
<path d="M 256.32 318.53 C 260.34 316.43 263.88 313.46 266.52 309.77 C 268.51 315.45 265.50 321.48 260.44 324.33 C 258.77 324.29 257.11 324.21 255.45 324.11 C 255.74 322.25 256.03 320.39 256.32 318.53 Z" fill="#8a2b26" opacity="1.00" stroke="#8a2b26" stroke-width="0.25" data-index="154"></path>
<path d="M 389.02 309.88 L 389.08 310.66 C 388.91 315.43 389.31 320.19 390.19 324.88 C 389.16 324.79 388.14 324.67 387.12 324.57 C 387.55 322.29 387.97 320.01 388.38 317.74 C 378.47 325.16 368.51 332.62 357.63 338.59 C 348.43 343.65 339.49 349.16 330.30 354.25 C 330.39 353.70 330.58 352.60 330.67 352.05 C 329.07 351.98 327.48 351.90 325.89 351.89 C 332.85 347.51 340.03 343.50 347.08 339.28 C 355.69 334.16 364.75 329.76 372.96 323.97 C 378.73 319.79 384.97 315.91 389.02 309.88 Z" fill="#f0b952" opacity="1.00" stroke="#f0b952" stroke-width="0.25" data-index="155" style="opacity: 1;"></path>
<path d="M 330.81 327.56 C 340.71 322.42 349.88 315.99 359.90 311.07 C 360.63 312.61 361.31 314.17 362.01 315.73 C 331.64 332.17 301.93 349.81 272.10 367.19 C 271.69 365.52 271.22 363.87 271.03 362.17 C 271.97 361.02 273.25 360.23 274.52 359.49 C 293.54 349.31 311.87 337.89 330.81 327.56 Z" fill="#d4763c" opacity="1.00" stroke="#d4763c" stroke-width="0.25" data-index="156" style="opacity: 1;"></path>
<path d="M 154.01 314.09 C 161.03 314.69 166.36 319.75 172.59 322.47 C 184.59 328.92 196.10 336.23 208.03 342.81 C 206.91 343.09 205.78 343.38 204.66 343.66 C 204.59 344.51 204.52 345.36 204.45 346.21 C 195.29 341.19 186.43 335.61 177.14 330.82 C 171.72 328.03 166.70 324.54 161.31 321.69 C 158.25 319.88 153.94 318.36 154.01 314.09 Z" fill="#f0c663" opacity="1.00" stroke="#f0c663" stroke-width="0.25" data-index="157"></path>
<path d="M 247.21 316.74 C 247.40 316.56 247.78 316.18 247.97 316.00 C 248.75 317.23 249.41 318.57 250.44 319.63 C 252.45 319.68 254.41 319.08 256.32 318.53 C 256.03 320.39 255.74 322.25 255.45 324.11 C 257.11 324.21 258.77 324.29 260.44 324.33 L 261.31 324.36 C 258.65 324.83 255.85 325.87 253.22 324.74 C 250.14 323.89 248.23 321.17 246.27 318.86 C 246.51 318.33 246.97 317.27 247.21 316.74 Z" fill="#d66f32" opacity="1.00" stroke="#d66f32" stroke-width="0.25" data-index="158"></path>
<path d="M 279.31 368.35 C 308.77 351.79 338.09 334.91 367.36 317.99 C 368.24 319.32 369.10 320.68 369.95 322.04 C 361.52 326.98 353.15 332.02 344.57 336.69 C 334.31 342.26 324.38 348.41 314.29 354.28 C 303.52 360.34 292.80 366.48 282.16 372.76 C 280.04 373.97 277.92 375.17 275.76 376.31 C 276.42 373.51 276.36 369.86 279.31 368.35 Z" fill="#e07f3c" opacity="1.00" stroke="#e07f3c" stroke-width="0.25" data-index="159" style="opacity: 1;"></path>

<path d="M 127.61 318.63 C 132.94 320.45 137.87 323.20 142.67 326.10 C 151.53 331.55 160.23 337.25 169.22 342.49 C 168.25 343.03 167.28 343.58 166.31 344.14 C 166.44 344.64 166.69 345.66 166.82 346.16 C 159.20 341.97 151.75 337.45 144.29 332.98 C 138.03 329.13 131.09 325.47 127.61 318.63 Z" fill="#f3d26d" opacity="1.00" stroke="#f3d26d" stroke-width="0.25" data-index="161" style="opacity: 1;"></path>
<path d="M 100.80 322.83 C 102.23 322.45 103.66 322.08 105.10 321.71 C 105.12 325.56 105.45 329.42 106.26 333.20 C 105.91 333.46 105.22 333.98 104.87 334.24 C 105.66 334.74 106.46 335.23 107.25 335.73 C 105.04 335.63 102.83 335.48 100.62 335.31 C 100.75 331.15 100.86 326.99 100.80 322.83 Z" fill="#78bdb4" opacity="1.00" stroke="#78bdb4" stroke-width="0.25" data-index="162"></path>
<path d="M 210.91 325.93 C 211.46 324.51 212.02 323.10 212.57 321.69 C 221.45 325.78 229.66 331.16 238.29 335.74 C 241.64 337.65 245.27 339.19 248.21 341.74 C 248.79 343.22 248.63 344.86 248.80 346.42 C 242.93 344.75 237.73 341.47 232.47 338.49 C 225.41 334.09 217.94 330.38 210.91 325.93 Z" fill="#2f8f89" opacity="1.00" stroke="#2f8f89" stroke-width="0.25" data-index="163"></path>

<path d="M 146.70 323.51 C 153.30 322.45 158.84 326.86 164.39 329.64 C 177.66 337.38 191.44 344.25 204.31 352.66 C 202.16 352.28 200.00 352.01 197.85 351.67 C 199.16 353.20 200.48 354.72 201.85 356.20 C 195.33 352.86 188.90 349.34 182.80 345.28 C 173.25 339.75 163.62 334.35 153.86 329.20 C 151.14 327.77 148.80 325.74 146.70 323.51 Z" fill="#f0c867" opacity="1.00" stroke="#f0c867" stroke-width="0.25" data-index="165" style="opacity: 1;"></path>
<path d="M 299.01 333.91 C 305.66 330.23 311.97 325.86 319.02 322.92 C 318.00 323.89 317.02 324.90 316.04 325.91 C 318.04 325.93 320.05 325.96 322.06 325.90 C 318.08 329.17 313.39 331.35 308.97 333.92 C 296.98 340.94 284.82 347.64 272.88 354.73 C 270.56 356.53 267.86 356.30 265.46 354.79 C 266.48 352.46 268.77 351.16 270.80 349.82 C 280.36 344.79 289.52 339.07 299.01 333.91 Z" fill="#dd8141" opacity="1.00" stroke="#dd8141" stroke-width="0.25" data-index="166"></path>
<path d="M 387.12 324.57 C 388.14 324.67 389.16 324.79 390.19 324.88 C 391.57 324.76 392.95 324.59 394.34 324.44 C 393.00 327.81 390.11 330.13 387.12 331.99 C 386.53 329.88 385.98 327.77 385.44 325.65 C 385.99 325.28 386.55 324.92 387.12 324.57 Z" fill="#8d8168" opacity="1.00" stroke="#8d8168" stroke-width="0.25" data-index="167"></path>
<path d="M 324.01 363.02 C 344.77 351.04 365.30 338.65 385.44 325.65 C 385.98 327.77 386.53 329.88 387.12 331.99 C 361.95 347.65 336.41 362.71 310.78 377.61 C 293.94 386.99 277.43 396.94 260.94 406.94 C 259.06 407.97 257.20 409.22 255.06 409.62 C 253.44 409.19 251.98 408.33 250.53 407.53 C 232.62 396.65 214.50 386.14 196.40 375.58 C 198.21 374.34 199.85 372.87 201.62 371.57 C 216.68 379.97 231.44 388.89 246.12 397.93 C 249.07 399.59 251.82 401.76 255.11 402.72 C 257.28 402.46 259.07 401.04 260.91 399.98 C 281.55 387.00 302.97 375.33 324.01 363.02 Z" fill="#1f8c7b" opacity="1.00" stroke="#1f8c7b" stroke-width="0.25" data-index="168" style="opacity: 1;"></path>
<path d="M 125.23 333.90 C 126.15 331.61 127.07 329.32 127.71 326.93 C 133.03 332.44 140.28 335.33 146.67 339.33 C 165.16 349.79 183.14 361.10 201.62 371.57 C 199.85 372.87 198.21 374.34 196.40 375.58 C 178.84 365.13 161.04 355.06 143.56 344.46 C 137.49 340.88 131.16 337.73 125.23 333.90 Z" fill="#2b9d89" opacity="1.00" stroke="#2b9d89" stroke-width="0.25" data-index="169" style="opacity: 1;"></path>
<path d="M 395.00 335.01 C 398.63 332.92 402.65 331.69 406.67 330.61 C 406.98 331.92 407.31 333.23 407.67 334.54 C 387.95 345.44 368.23 356.35 348.80 367.76 C 330.61 378.71 312.02 388.98 293.72 399.74 C 281.44 406.76 269.42 414.23 257.06 421.11 C 255.06 422.43 253.09 420.53 251.33 419.69 C 230.68 407.34 209.91 395.20 189.21 382.95 C 190.73 381.81 192.26 380.69 193.79 379.57 C 211.66 389.84 229.28 400.53 247.08 410.91 C 249.96 412.54 252.73 414.50 255.91 415.52 C 259.69 414.01 263.07 411.69 266.53 409.59 C 280.05 401.37 293.82 393.58 307.37 385.43 C 318.51 379.32 329.45 372.84 340.43 366.44 C 358.42 355.61 376.78 345.44 395.00 335.01 Z" fill="#1b8575" opacity="1.00" stroke="#1b8575" stroke-width="0.25" data-index="170" style="opacity: 1;"></path>
<path d="M 79.26 337.27 C 81.51 334.38 84.94 332.73 88.36 331.69 C 88.82 332.00 89.73 332.63 90.19 332.94 C 88.95 333.00 87.71 333.05 86.47 333.09 C 85.28 338.41 81.37 342.30 77.31 345.63 L 76.35 346.38 L 76.56 345.22 C 77.09 342.48 77.64 339.60 79.26 337.27 Z" fill="#d8ffd6" opacity="1.00" stroke="#d8ffd6" stroke-width="0.25" data-index="171"></path>
<path d="M 205.85 332.46 C 208.64 333.25 211.43 334.07 214.18 335.02 C 220.40 337.33 225.80 341.30 231.65 344.36 C 235.59 346.67 240.08 348.35 243.29 351.69 C 244.97 354.14 241.60 355.44 239.71 354.30 C 232.13 350.75 225.09 346.15 217.71 342.21 C 214.41 340.31 210.82 338.67 208.12 335.91 C 207.33 334.78 206.59 333.62 205.85 332.46 Z" fill="#e9a34e" opacity="1.00" stroke="#e9a34e" stroke-width="0.25" data-index="172"></path>
<path d="M 414.45 339.01 C 417.13 335.80 420.36 333.01 424.36 331.61 C 423.47 334.22 422.90 337.08 421.18 339.30 C 419.41 340.86 416.84 340.07 414.76 339.77 L 414.45 339.01 Z" fill="#f4eac3" opacity="1.00" stroke="#f4eac3" stroke-width="0.25" data-index="173" style="opacity: 1;"></path>
<path d="M 424.36 331.61 C 426.30 331.75 428.23 331.84 430.17 331.98 L 429.81 332.35 C 426.78 335.56 423.79 338.79 420.72 341.94 C 419.00 341.95 417.28 341.94 415.56 341.95 C 415.36 341.40 414.96 340.32 414.76 339.77 C 416.84 340.07 419.41 340.86 421.18 339.30 C 422.90 337.08 423.47 334.22 424.36 331.61 Z" fill="#edb551" opacity="1.00" stroke="#edb551" stroke-width="0.25" data-index="174" style="opacity: 1;"></path>
<path d="M 86.47 333.09 C 87.71 333.05 88.95 333.00 90.19 332.94 C 90.74 332.92 91.82 332.86 92.37 332.84 L 91.45 333.08 C 90.54 333.54 89.65 334.03 88.76 334.53 C 88.09 337.14 87.82 339.99 86.28 342.28 C 84.09 344.47 81.02 345.43 78.13 346.33 L 76.85 346.70 L 77.31 345.63 C 81.37 342.30 85.28 338.41 86.47 333.09 Z" fill="#a8f6bb" opacity="1.00" stroke="#a8f6bb" stroke-width="0.25" data-index="175"></path>
<path d="M 104.87 334.24 C 105.22 333.98 105.91 333.46 106.26 333.20 C 112.39 335.49 119.24 335.66 124.95 339.09 C 133.73 344.07 142.27 349.48 151.07 354.44 C 150.09 355.95 149.08 357.45 148.09 358.97 C 134.59 351.04 121.19 342.89 107.25 335.73 C 106.46 335.23 105.66 334.74 104.87 334.24 Z" fill="#34998c" opacity="1.00" stroke="#34998c" stroke-width="0.25" data-index="176" style="opacity: 1;"></path>
<path d="M 420.72 341.94 C 423.79 338.79 426.78 335.56 429.81 332.35 C 432.13 334.42 433.99 336.96 434.76 340.02 C 430.95 341.80 427.05 343.40 423.09 344.84 C 423.61 346.76 424.21 348.66 424.76 350.58 C 426.34 350.50 427.92 350.44 429.51 350.32 L 430.35 350.27 C 425.84 352.13 419.78 351.56 417.44 346.73 C 416.74 345.16 416.15 343.55 415.56 341.95 C 417.28 341.94 419.00 341.95 420.72 341.94 Z" fill="#e26f2f" opacity="1.00" stroke="#e26f2f" stroke-width="0.25" data-index="177" style="opacity: 1;"></path>
<path d="M 88.76 334.53 C 89.65 334.03 90.54 333.54 91.45 333.08 C 92.45 334.86 93.44 336.67 94.51 338.42 C 89.82 342.02 85.11 345.58 80.64 349.44 C 79.83 348.37 78.99 347.34 78.13 346.33 C 81.02 345.43 84.09 344.47 86.28 342.28 C 87.82 339.99 88.09 337.14 88.76 334.53 Z" fill="#7bcba3" opacity="1.00" stroke="#7bcba3" stroke-width="0.25" data-index="178"></path>

<path d="M 80.64 349.44 C 85.11 345.58 89.82 342.02 94.51 338.42 C 94.92 342.11 95.93 346.80 92.29 349.26 C 89.13 352.66 84.30 350.85 80.64 349.44 Z" fill="#3c7098" opacity="1.00" stroke="#3c7098" stroke-width="0.25" data-index="180"></path>

<path d="M 423.09 344.84 C 427.05 343.40 430.95 341.80 434.76 340.02 C 434.51 343.92 433.56 348.64 429.51 350.32 C 427.92 350.44 426.34 350.50 424.76 350.58 C 424.21 348.66 423.61 346.76 423.09 344.84 Z" fill="#6a241f" opacity="1.00" stroke="#6a241f" stroke-width="0.25" data-index="182" style="opacity: 1;"></path>
<path d="M 166.31 344.14 C 167.28 343.58 168.25 343.03 169.22 342.49 C 192.06 355.76 215.11 368.68 237.71 382.36 C 239.10 383.51 240.52 384.64 241.94 385.76 C 240.49 386.49 239.05 387.22 237.60 387.95 C 214.19 373.71 190.43 360.07 166.82 346.16 C 166.69 345.66 166.44 344.64 166.31 344.14 Z" fill="#f5c557" opacity="1.00" stroke="#f5c557" stroke-width="0.25" data-index="183" style="opacity: 1;"></path>
<path d="M 204.66 343.66 C 205.78 343.38 206.91 343.09 208.03 342.81 C 218.46 349.39 229.51 354.87 240.00 361.33 C 239.42 362.87 238.86 364.43 238.25 365.98 C 226.81 359.68 215.59 353.02 204.45 346.21 C 204.52 345.36 204.59 344.51 204.66 343.66 Z" fill="#efb250" opacity="1.00" stroke="#efb250" stroke-width="0.25" data-index="184"></path>
<path d="M 197.85 351.67 C 200.00 352.01 202.16 352.28 204.31 352.66 C 214.08 358.67 224.66 363.35 234.01 370.04 C 234.75 371.76 235.38 373.54 236.00 375.32 C 235.50 375.21 234.51 375.00 234.01 374.89 C 223.07 369.05 212.55 362.48 201.85 356.20 C 200.48 354.72 199.16 353.20 197.85 351.67 Z" fill="#e4944c" opacity="1.00" stroke="#e4944c" stroke-width="0.25" data-index="185" style="opacity: 1;"></path>
<path d="M 283.66 376.05 C 297.90 368.27 311.58 359.53 325.89 351.89 C 327.48 351.90 329.07 351.98 330.67 352.05 C 330.58 352.60 330.39 353.70 330.30 354.25 C 319.15 360.85 307.61 366.77 296.54 373.50 C 284.92 380.56 273.32 387.65 261.79 394.85 C 259.38 396.11 256.66 398.44 253.81 397.07 C 248.09 394.64 243.00 390.98 237.60 387.95 C 239.05 387.22 240.49 386.49 241.94 385.76 C 245.66 388.38 249.65 391.03 254.23 391.75 C 258.69 392.17 262.58 389.44 266.23 387.25 C 271.98 383.43 277.59 379.38 283.66 376.05 Z" fill="#eea249" opacity="1.00" stroke="#eea249" stroke-width="0.25" data-index="186" style="opacity: 1;"></path>
<path d="M 148.09 358.97 C 149.08 357.45 150.09 355.95 151.07 354.44 C 165.24 362.95 179.50 371.29 193.79 379.57 C 192.26 380.69 190.73 381.81 189.21 382.95 C 184.99 380.88 180.91 378.55 176.96 376.02 C 167.42 370.20 157.54 364.96 148.09 358.97 Z" fill="#2d9486" opacity="1.00" stroke="#2d9486" stroke-width="0.25" data-index="187"></path>
<path d="M 254.66 357.52 C 256.65 357.07 258.68 357.95 260.65 358.30 C 256.54 363.47 250.37 367.78 249.54 374.80 C 248.50 373.29 246.87 371.93 246.68 370.03 C 247.81 367.33 250.25 365.42 251.57 362.81 C 252.68 361.10 253.15 358.93 254.66 357.52 Z" fill="#a9f2b9" opacity="1.00" stroke="#a9f2b9" stroke-width="0.25" data-index="188" style="opacity: 1;"></path>
<path d="M 249.54 374.80 C 250.37 367.78 256.54 363.47 260.65 358.30 C 261.67 359.46 262.78 360.56 263.84 361.70 C 257.54 364.80 254.67 371.66 249.34 375.92 C 249.39 375.64 249.49 375.08 249.54 374.80 Z" fill="#63d896" opacity="1.00" stroke="#63d896" stroke-width="0.25" data-index="189" style="opacity: 1;"></path>
<path d="M 249.34 375.92 C 254.67 371.66 257.54 364.80 263.84 361.70 C 264.36 362.94 264.89 364.18 265.44 365.42 C 262.94 367.02 260.46 368.65 258.01 370.33 C 259.09 372.49 260.18 374.66 261.27 376.84 C 257.31 378.40 253.09 377.74 249.34 375.92 Z" fill="#25a282" opacity="1.00" stroke="#25a282" stroke-width="0.25" data-index="190" style="opacity: 1;"></path>
<path d="M 258.01 370.33 C 260.46 368.65 262.94 367.02 265.44 365.42 C 266.65 369.87 264.28 373.79 261.27 376.84 C 260.18 374.66 259.09 372.49 258.01 370.33 Z" fill="#124658" opacity="1.00" stroke="#124658" stroke-width="0.25" data-index="191"></path>
<path d="M 234.01 370.04 C 238.94 373.03 243.60 376.51 247.08 381.18 C 246.47 381.38 245.23 381.79 244.61 382.00 C 242.35 380.69 240.16 379.26 238.03 377.75 C 236.69 376.80 235.37 375.81 234.01 374.89 C 234.51 375.00 235.50 375.21 236.00 375.32 C 235.38 373.54 234.75 371.76 234.01 370.04 Z" fill="#f7dd8c" opacity="1.00" stroke="#f7dd8c" stroke-width="0.25" data-index="192" style="opacity: 1;"></path>
<path d="M 244.61 382.00 C 245.23 381.79 246.47 381.38 247.08 381.18 C 251.32 383.86 257.07 382.47 260.89 385.84 C 259.17 386.81 257.36 389.05 255.21 387.95 C 251.49 386.32 248.20 383.89 244.61 382.00 Z" fill="#ba6b4a" opacity="1.00" stroke="#ba6b4a" stroke-width="0.25" data-index="193" style="opacity: 1;"></path>
<path d="M 169.36 390.41 C 175.19 388.45 181.32 395.08 178.72 400.69 C 177.27 405.40 170.82 406.92 167.20 403.73 C 162.23 400.61 163.72 391.83 169.36 390.41 Z" fill="#70adac" opacity="1.00" stroke="#70adac" stroke-width="0.25" data-index="194" style="opacity: 1;"></path>
<path d="M 335.79 391.80 C 339.86 388.46 346.47 390.23 348.58 395.02 C 349.29 398.70 348.55 403.21 344.70 404.82 C 340.81 406.97 336.79 404.29 333.50 402.27 C 333.36 398.73 332.54 394.27 335.79 391.80 Z" fill="#cf7141" opacity="1.00" stroke="#cf7141" stroke-width="0.25" data-index="195" style="opacity: 1;"></path>
<path d="M 100.62 393.74 C 105.19 391.87 110.18 392.61 114.98 392.42 C 123.91 392.19 132.84 392.41 141.77 392.34 C 141.76 392.91 141.73 394.04 141.72 394.61 C 131.81 394.58 121.91 394.33 112.01 394.51 C 108.19 394.59 104.37 394.44 100.62 393.74 Z" fill="#91b4ae" opacity="1.00" stroke="#91b4ae" stroke-width="0.25" data-index="196"></path>
<path d="M 169.17 394.66 C 170.98 394.94 172.81 394.96 174.62 394.65 C 174.60 396.43 174.60 398.22 174.60 400.02 C 172.92 400.25 171.25 400.48 169.57 400.70 C 169.44 398.68 169.29 396.67 169.17 394.66 Z" fill="#dafeeb" opacity="1.00" stroke="#dafeeb" stroke-width="0.25" data-index="197"></path>
<path d="M 341.04 400.60 C 337.63 401.46 335.87 396.11 338.92 394.70 C 340.50 394.50 342.09 394.39 343.70 394.36 C 343.33 396.40 344.07 400.62 341.04 400.60 Z" fill="#fbe1a1" opacity="1.00" stroke="#fbe1a1" stroke-width="0.25" data-index="198" style="opacity: 1;"></path>

<path d="M 309.72 409.76 C 315.57 406.73 320.97 402.92 326.88 400.00 C 328.00 400.46 329.13 400.93 330.26 401.41 C 329.67 402.96 329.63 405.00 328.09 405.97 C 324.44 408.48 320.38 410.29 316.57 412.53 C 311.26 415.49 306.61 419.54 301.02 422.01 C 294.96 424.73 289.61 428.75 283.55 431.45 C 278.72 433.61 275.06 437.84 269.83 439.19 C 270.51 436.65 270.74 433.70 272.84 431.85 C 277.19 427.88 282.88 425.92 287.77 422.76 C 294.93 418.17 302.20 413.75 309.72 409.76 Z" fill="#faf9eb" opacity="1.00" stroke="#faf9eb" stroke-width="0.25" data-index="200" style="opacity: 1; visibility: hidden;"></path>
<path d="M 100.47 404.52 C 102.36 401.75 106.06 402.43 108.93 402.29 C 119.52 402.48 130.13 402.06 140.71 402.69 C 130.12 402.61 119.52 403.05 108.93 403.44 C 111.07 403.83 113.20 404.24 115.35 404.57 C 110.40 405.02 105.41 405.11 100.47 404.52 Z" fill="#bddfd5" opacity="1.00" stroke="#bddfd5" stroke-width="0.25" data-index="201"></path>
<path d="M 108.93 403.44 C 119.52 403.05 130.12 402.61 140.71 402.69 C 141.20 403.22 142.17 404.26 142.65 404.78 C 133.57 405.37 124.41 405.38 115.35 404.57 C 113.20 404.24 111.07 403.83 108.93 403.44 Z" fill="#adbfbc" opacity="1.00" stroke="#adbfbc" stroke-width="0.25" data-index="202" style="opacity: 1;"></path>
<path d="M 253.29 439.41 C 255.60 439.72 258.35 439.11 260.26 440.75 C 261.16 442.85 261.93 445.00 262.70 447.16 C 260.48 448.51 258.27 449.90 256.09 451.32 C 253.97 451.71 251.79 452.43 249.63 452.02 C 248.35 451.16 247.33 449.98 246.22 448.92 L 246.21 448.37 C 248.20 447.90 250.22 447.52 252.24 447.16 C 252.53 444.57 252.89 441.98 253.29 439.41 Z" fill="#f39536" opacity="1.00" stroke="#f39536" stroke-width="0.25" data-index="203" style="opacity: 1;"></path>
<path d="M 260.26 440.75 C 263.04 443.52 264.30 447.46 263.84 451.34 C 262.63 454.04 260.61 456.76 257.60 457.54 C 255.75 457.88 253.88 457.51 252.04 457.36 C 253.36 455.32 254.62 453.25 256.09 451.32 C 258.27 449.90 260.48 448.51 262.70 447.16 C 261.93 445.00 261.16 442.85 260.26 440.75 Z" fill="#782928" opacity="1.00" stroke="#782928" stroke-width="0.25" data-index="204"></path>
<path d="M 246.22 448.92 C 247.33 449.98 248.35 451.16 249.63 452.02 C 251.79 452.43 253.97 451.71 256.09 451.32 C 254.62 453.25 253.36 455.32 252.04 457.36 C 249.17 455.33 245.37 453.10 246.22 448.92 Z" fill="#c45535" opacity="1.00" stroke="#c45535" stroke-width="0.25" data-index="205"></path>
</svg>